<?xml version="1.0" encoding="utf-8"?>
<!-- Generator: Adobe Illustrator 25.2.3, SVG Export Plug-In . SVG Version: 6.00 Build 0)  -->
<svg version="1.1" id="Layer_1" xmlns="http://www.w3.org/2000/svg" xmlns:xlink="http://www.w3.org/1999/xlink" x="0px" y="0px"
	 viewBox="0 0 134.6 45" style="enable-background:new 0 0 134.6 45;" xml:space="preserve">
<style type="text/css">
	.st0{fill:#B1B3B5;}
	.st1{fill:#FFFFFF;}
	.st2{fill:#FFFFFF;stroke:#FFFFFF;stroke-width:0.1944;stroke-miterlimit:10;}
	.st3{fill:#5BC8F3;}
	.st4{fill:url(#SVGID_1_);}
	.st5{fill:url(#SVGID_2_);}
	.st6{fill:url(#SVGID_3_);}
</style>
<g>
	<g>
		<g>
			<g>
				<path class="st0" d="M123.9,0H10.7c-0.4,0-0.8,0-1.2,0c-0.3,0-0.7,0-1,0C7.7,0,7,0.1,6.2,0.2C5.5,0.3,4.8,0.6,4.1,0.9
					C3.4,1.3,2.8,1.7,2.2,2.2c-0.5,0.5-1,1.2-1.3,1.8C0.6,4.8,0.3,5.5,0.2,6.2C0.1,7,0,7.7,0,8.5c0,0.3,0,0.7,0,1c0,0.4,0,0.8,0,1.2
					v23.5c0,0.4,0,0.8,0,1.2c0,0.3,0,0.7,0,1c0,0.8,0.1,1.5,0.2,2.3c0.1,0.8,0.4,1.5,0.7,2.1c0.3,0.7,0.8,1.3,1.3,1.8
					c0.5,0.5,1.1,1,1.8,1.3c0.7,0.4,1.4,0.6,2.1,0.7C7,44.9,7.7,45,8.5,45c0.3,0,0.7,0,1,0c0.4,0,0.8,0,1.2,0h113.2
					c0.4,0,0.8,0,1.2,0c0.3,0,0.7,0,1,0c0.8,0,1.5-0.1,2.2-0.2c0.8-0.1,1.5-0.4,2.1-0.7c0.7-0.3,1.3-0.8,1.8-1.3
					c0.5-0.5,1-1.1,1.3-1.8c0.3-0.7,0.6-1.4,0.7-2.1c0.1-0.7,0.2-1.5,0.2-2.3c0-0.3,0-0.7,0-1c0-0.4,0-0.8,0-1.2V10.7
					c0-0.4,0-0.8,0-1.2c0-0.3,0-0.7,0-1c0-0.8-0.1-1.5-0.2-2.3c-0.1-0.8-0.4-1.5-0.7-2.1c-0.3-0.7-0.8-1.3-1.3-1.8
					c-0.5-0.5-1.1-1-1.8-1.3c-0.7-0.3-1.4-0.6-2.1-0.7c-0.7-0.1-1.5-0.2-2.2-0.2c-0.3,0-0.7,0-1,0C124.7,0,124.3,0,123.9,0L123.9,0z
					"/>
				<path d="M9.5,44c-0.3,0-0.7,0-1,0c-0.6,0-1.4-0.1-2.1-0.2c-0.7-0.1-1.3-0.3-1.9-0.6c-0.6-0.3-1.1-0.7-1.6-1.1
					c-0.5-0.5-0.8-1-1.1-1.6c-0.3-0.6-0.5-1.2-0.6-1.9C1,37.9,1,37.1,1,36.5c0-0.2,0-1,0-1v-26c0,0,0-0.8,0-1c0-0.6,0-1.4,0.2-2.1
					c0.1-0.7,0.3-1.3,0.6-1.9c0.3-0.6,0.7-1.1,1.1-1.6c0.5-0.5,1-0.9,1.6-1.2c0.6-0.3,1.2-0.5,1.9-0.6C7.1,1,7.9,1,8.5,1l1,0h115.6
					l1,0c0.6,0,1.3,0,2.1,0.2c0.7,0.1,1.3,0.3,1.9,0.6c0.6,0.3,1.1,0.7,1.6,1.1c0.5,0.5,0.8,1,1.2,1.6c0.3,0.6,0.5,1.2,0.6,1.9
					c0.1,0.7,0.2,1.4,0.2,2.1c0,0.3,0,0.7,0,1c0,0.4,0,0.8,0,1.2v23.5c0,0.4,0,0.8,0,1.2c0,0.4,0,0.7,0,1c0,0.7-0.1,1.4-0.2,2.1
					c-0.1,0.7-0.3,1.3-0.6,1.9c-0.3,0.6-0.7,1.1-1.1,1.6c-0.5,0.5-1,0.9-1.6,1.2c-0.6,0.3-1.2,0.5-1.9,0.6c-0.7,0.1-1.5,0.2-2.1,0.2
					c-0.3,0-0.7,0-1,0l-1.2,0L9.5,44z"/>
			</g>
		</g>
		<g id="XMLID_20_">
			<g id="XMLID_22_">
				<g id="XMLID_23_">
					<path id="XMLID_25_" class="st1" d="M27.9,22.8c0-3.1,2.5-4.6,2.7-4.7c-1.5-2.1-3.7-2.4-4.5-2.4c-1.9-0.2-3.7,1.1-4.7,1.1
						c-1,0-2.5-1.1-4.1-1.1c-2.1,0-4,1.2-5,3.1c-2.2,3.8-0.6,9.3,1.5,12.3c1,1.5,2.3,3.2,3.9,3.1c1.6-0.1,2.1-1,4-1c1.9,0,2.4,1,4,1
						c1.7,0,2.7-1.5,3.7-3c1.2-1.7,1.7-3.4,1.7-3.5C31.1,27.8,27.9,26.5,27.9,22.8z"/>
					<path id="XMLID_24_" class="st1" d="M24.8,13.7c0.8-1,1.4-2.5,1.3-3.9c-1.2,0.1-2.7,0.8-3.6,1.9c-0.8,0.9-1.5,2.4-1.3,3.8
						C22.5,15.6,23.9,14.8,24.8,13.7z"/>
				</g>
			</g>
			<g>
				<path class="st1" d="M47.6,30.5h-5.3L41,34.3h-2.3l5-14h2.3l5,14h-2.3L47.6,30.5z M42.8,28.8H47L45,22.7h-0.1L42.8,28.8z"/>
				<path class="st1" d="M62.1,29.2c0,3.2-1.7,5.2-4.3,5.2c-1.5,0-2.6-0.6-3.2-1.8h0v5h-2.1V24.1h2v1.7h0c0.6-1.1,1.8-1.8,3.2-1.8
					C60.4,24,62.1,26.1,62.1,29.2z M59.9,29.2c0-2.1-1.1-3.4-2.7-3.4c-1.6,0-2.7,1.4-2.7,3.4c0,2.1,1.1,3.4,2.7,3.4
					C58.8,32.6,59.9,31.3,59.9,29.2z"/>
				<path class="st1" d="M73.3,29.2c0,3.2-1.7,5.2-4.3,5.2c-1.5,0-2.6-0.6-3.2-1.8h0v5h-2.1V24.1h2v1.7h0c0.6-1.1,1.8-1.8,3.2-1.8
					C71.6,24,73.3,26.1,73.3,29.2z M71.1,29.2c0-2.1-1.1-3.4-2.7-3.4c-1.6,0-2.7,1.4-2.7,3.4c0,2.1,1.1,3.4,2.7,3.4
					C70.1,32.6,71.1,31.3,71.1,29.2z"/>
				<path class="st1" d="M80.7,30.4c0.2,1.4,1.5,2.3,3.3,2.3c1.8,0,3-0.9,3-2.2c0-1.1-0.8-1.7-2.6-2.2l-1.8-0.4
					c-2.6-0.6-3.8-1.8-3.8-3.8c0-2.4,2.1-4.1,5.1-4.1c3,0,5,1.7,5,4.1h-2.1c-0.1-1.4-1.3-2.2-3-2.2s-2.8,0.9-2.8,2.1
					c0,1,0.7,1.6,2.5,2l1.5,0.4c2.9,0.7,4.1,1.8,4.1,3.9c0,2.6-2.1,4.3-5.4,4.3c-3.1,0-5.2-1.6-5.3-4.1H80.7z"/>
				<path class="st1" d="M93.8,21.7v2.4h1.9v1.7h-1.9v5.6c0,0.9,0.4,1.3,1.2,1.3c0.2,0,0.6,0,0.7,0v1.6c-0.2,0.1-0.7,0.1-1.2,0.1
					c-2.1,0-2.9-0.8-2.9-2.7v-5.8h-1.5v-1.7h1.5v-2.4H93.8z"/>
				<path class="st1" d="M96.8,29.2c0-3.2,1.9-5.2,4.8-5.2c3,0,4.8,2,4.8,5.2c0,3.2-1.9,5.2-4.8,5.2C98.7,34.4,96.8,32.4,96.8,29.2z
					 M104.4,29.2c0-2.2-1-3.5-2.7-3.5S99,27,99,29.2c0,2.2,1,3.5,2.7,3.5S104.4,31.4,104.4,29.2z"/>
				<path class="st1" d="M108.2,24.1h2v1.7h0c0.3-1.2,1.2-1.8,2.4-1.8c0.3,0,0.6,0,0.7,0.1v2c-0.2-0.1-0.5-0.1-0.9-0.1
					c-1.3,0-2.2,0.9-2.2,2.3v6h-2.1V24.1z"/>
				<path class="st1" d="M123.1,31.3c-0.3,1.8-2.1,3.1-4.4,3.1c-3,0-4.8-2-4.8-5.2c0-3.2,1.8-5.3,4.7-5.3c2.8,0,4.6,1.9,4.6,5v0.7
					H116v0.1c0,1.7,1.1,2.9,2.7,2.9c1.2,0,2.1-0.6,2.4-1.4H123.1z M116,28.3h5.1c0-1.6-1-2.6-2.5-2.6
					C117.1,25.7,116.1,26.7,116,28.3z"/>
			</g>
		</g>
	</g>
	<g id="XMLID_1_">
		<g>
			<path class="st1" d="M42.6,9.8c2,0,3.2,1.2,3.2,3.3c0,2.1-1.2,3.4-3.2,3.4h-2.4V9.8H42.6z M41.2,15.6h1.3c1.4,0,2.2-0.9,2.2-2.4
				c0-1.5-0.8-2.4-2.2-2.4h-1.3V15.6z"/>
			<path class="st1" d="M46.9,14c0-1.6,0.9-2.6,2.4-2.6c1.5,0,2.4,1,2.4,2.6c0,1.6-0.9,2.6-2.4,2.6C47.8,16.6,46.9,15.6,46.9,14z
				 M50.6,14c0-1.1-0.5-1.7-1.4-1.7c-0.9,0-1.4,0.6-1.4,1.7c0,1.1,0.5,1.7,1.4,1.7C50.1,15.7,50.6,15.1,50.6,14z"/>
			<path class="st1" d="M58,16.5h-1l-1-3.7h-0.1l-1,3.7h-1l-1.4-5.1h1l0.9,3.9h0.1l1-3.9h1l1,3.9h0.1l0.9-3.9h1L58,16.5z"/>
			<path class="st1" d="M60.6,11.5h1v0.8h0.1c0.2-0.6,0.7-0.9,1.5-0.9c1.1,0,1.8,0.7,1.8,1.9v3.3h-1v-3c0-0.8-0.4-1.2-1.1-1.2
				s-1.2,0.5-1.2,1.3v3h-1V11.5z"/>
			<path class="st1" d="M66.5,9.5h1v7h-1V9.5z"/>
			<path class="st1" d="M68.9,14c0-1.6,0.9-2.6,2.4-2.6c1.5,0,2.4,1,2.4,2.6c0,1.6-0.9,2.6-2.4,2.6C69.8,16.6,68.9,15.6,68.9,14z
				 M72.6,14c0-1.1-0.5-1.7-1.4-1.7c-0.9,0-1.4,0.6-1.4,1.7c0,1.1,0.5,1.7,1.4,1.7C72.1,15.7,72.6,15.1,72.6,14z"/>
			<path class="st1" d="M74.7,15.1c0-0.9,0.7-1.4,1.9-1.5l1.4-0.1v-0.4c0-0.5-0.4-0.8-1-0.8c-0.6,0-0.9,0.2-1.1,0.6h-1
				c0.1-0.9,0.9-1.4,2.1-1.4c1.3,0,2,0.6,2,1.7v3.5h-1v-0.7h-0.1c-0.3,0.5-0.9,0.8-1.5,0.8C75.4,16.6,74.7,16,74.7,15.1z M78,14.7
				v-0.4l-1.2,0.1c-0.7,0-1,0.3-1,0.7c0,0.5,0.4,0.7,0.9,0.7C77.4,15.8,78,15.3,78,14.7z"/>
			<path class="st1" d="M80.3,14c0-1.6,0.8-2.6,2.1-2.6c0.7,0,1.3,0.3,1.6,0.9H84V9.5h1v7h-1v-0.8H84c-0.3,0.6-0.9,0.9-1.6,0.9
				C81.1,16.6,80.3,15.6,80.3,14z M81.3,14c0,1.1,0.5,1.7,1.4,1.7c0.8,0,1.4-0.7,1.4-1.7c0-1.1-0.5-1.7-1.4-1.7
				C81.8,12.3,81.3,12.9,81.3,14z"/>
			<path class="st1" d="M89.1,14c0-1.6,0.9-2.6,2.4-2.6c1.5,0,2.4,1,2.4,2.6c0,1.6-0.9,2.6-2.4,2.6C90,16.6,89.1,15.6,89.1,14z
				 M92.9,14c0-1.1-0.5-1.7-1.4-1.7c-0.9,0-1.4,0.6-1.4,1.7c0,1.1,0.5,1.7,1.4,1.7C92.4,15.7,92.9,15.1,92.9,14z"/>
			<path class="st1" d="M95.3,11.5h1v0.8h0.1c0.2-0.6,0.7-0.9,1.5-0.9c1.1,0,1.8,0.7,1.8,1.9v3.3h-1v-3c0-0.8-0.4-1.2-1.1-1.2
				s-1.2,0.5-1.2,1.3v3h-1V11.5z"/>
			<path class="st1" d="M105.2,10.2v1.3h1.1v0.8h-1.1v2.6c0,0.5,0.2,0.8,0.7,0.8c0.2,0,0.2,0,0.4,0v0.8c-0.2,0-0.3,0.1-0.5,0.1
				c-1.1,0-1.6-0.4-1.6-1.4v-2.9h-0.8v-0.8h0.8v-1.3H105.2z"/>
			<path class="st1" d="M107.7,9.5h1v2.8h0.1c0.2-0.6,0.8-0.9,1.5-0.9c1.1,0,1.7,0.7,1.7,1.9v3.3h-1v-3c0-0.8-0.4-1.2-1.1-1.2
				c-0.8,0-1.3,0.5-1.3,1.3v3h-1V9.5z"/>
			<path class="st1" d="M117.9,15.2c-0.2,0.9-1,1.5-2.2,1.5c-1.5,0-2.3-1-2.3-2.6c0-1.6,0.9-2.6,2.3-2.6c1.4,0,2.3,1,2.3,2.6v0.3
				h-3.6v0.1c0,0.9,0.5,1.5,1.3,1.5c0.6,0,1-0.2,1.2-0.6H117.9z M114.3,13.5h2.6c0-0.8-0.5-1.3-1.2-1.3
				C114.9,12.2,114.4,12.7,114.3,13.5z"/>
		</g>
	</g>
</g>
</svg>
