<?xml version="1.0" encoding="utf-8"?>
<!-- Generator: Adobe Illustrator 27.2.0, SVG Export Plug-In . SVG Version: 6.00 Build 0)  -->
<svg version="1.1" id="Layer_1" xmlns="http://www.w3.org/2000/svg" xmlns:xlink="http://www.w3.org/1999/xlink" x="0px" y="0px"
	 viewBox="0 0 185 185" style="enable-background:new 0 0 185 185;" xml:space="preserve">
<style type="text/css">
	.st0{clip-path:url(#SVGID_00000049180856124703971990000015424064887431935661_);}
	.st1{fill:#E58613;}
	.st2{fill:#FFFFFF;}
	.st3{fill:#678925;}
	.st4{fill:#2F6FA8;}
	.st5{fill:#C1A840;}
</style>
<g>
	<g>
		<g>
			<g>
				<defs>
					<rect id="SVGID_1_" x="1" y="1" width="183" height="183"/>
				</defs>
				<clipPath id="SVGID_00000119813678774152812880000001064550251380831925_">
					<use xlink:href="#SVGID_1_"  style="overflow:visible;"/>
				</clipPath>
				<g style="clip-path:url(#SVGID_00000119813678774152812880000001064550251380831925_);">
					<path class="st1" d="M91.8,149.3c24.4,0,44.1-19.8,44.1-44.1s-19.8-44.1-44.1-44.1s-44.1,19.8-44.1,44.1S67.4,149.3,91.8,149.3
						z"/>
					<path class="st2" d="M91.8,140.3c19.4,0,35.2-15.7,35.2-35.2c0-19.4-15.7-35.2-35.2-35.2c-19.4,0-35.2,15.7-35.2,35.2
						C56.6,124.6,72.4,140.3,91.8,140.3z"/>
					<path d="M105.2,117.1H100v9h-8.9v-9H72.9v-6.4l18.7-27.9h8.4v27.4h5.2V117.1z M91.1,109.8v-8.4c0-0.5,0-1.1,0-1.7
						c0-0.6,0-1.2,0-1.9v-1.9c0-0.6,0-1.1,0-1.6s0-0.8,0-0.9h-0.3l-1.2,2.7c-0.4,0.9-1,1.9-1.5,2.8l-7.3,10.9L91.1,109.8z"/>
					<path class="st3" d="M92,46.9c9.8,0,17.8-9.9,17.8-22c0-12.2-8-22-17.8-22s-17.8,9.9-17.8,22S82.2,46.9,92,46.9z"/>
					<path class="st3" d="M120.2,64.9c1.4-3.6,2.4-7.4,3.1-11.2c2.8,1.4,4.9,12.2,4.6,17.9c8.1,8.6,12.8,19.7,13.4,31.5
						c5.8-8.9,22.9-70.5-28.6-85.7c2.8,30.2-17.8,33.6-20.2,33.7s-24.7-2.8-21.8-33.2c-33.8,7.4-36.6,38.5-35.6,49.9
						c7.3-4.2,15.5-6.7,23.9-7.3c0.6-2.5,1.7-4.9,3.4-6.8c0,2.7,0.2,4.2,0.2,6.4c1.6-0.2,6-0.7,11.7-0.9c7.6-2.9,15.7-3.9,23.7-2.9
						C106,57.4,113.6,60.4,120.2,64.9L120.2,64.9z"/>
					<path class="st4" d="M180.7,155.6c4.9-8.5,0.3-20.3-10.2-26.4s-23-4.1-28,4.4c-4.9,8.5-0.3,20.3,10.2,26.4
						S175.8,164.1,180.7,155.6z"/>
					<path class="st4" d="M138.5,131.8c1.2-2.2,14.8-20,39.6-2.2c10.7-33-14.8-50.9-25.2-55.8c0,8.5-1.9,16.8-5.5,24.4
						c1.9,1.8,3.3,3.9,4.2,6.4l-5.7-3c-0.6,1.5-2.3,5.3-4.9,10.2c-1,8.1-4.1,15.9-8.8,22.6c-4.8,6.7-11.1,12.1-18.5,15.7
						c2.3,2.6,4.8,5,7.4,7.3c-2.3,1.5-10.9-1.2-16.2-4c-11.5,3.1-23.6,2-34.3-3.1c8.6,12.6,50.4,51,87.1,16.3
						C130,153.5,137.4,133.9,138.5,131.8z"/>
					<path class="st5" d="M41,133.4c-4.9-8.5-17.4-10.4-28-4.4c-10.5,6.1-14.9,17.9-10,26.4s17.4,10.5,27.9,4.4
						C41.5,153.7,46,141.9,41,133.4z"/>
					<path class="st5" d="M42.3,105.5c0-1.9,0-3.6,0.3-5.6c-3.9,0.6-7.7,1.7-11.4,3.1c-0.2-3.2,8.7-10.9,13.7-13.2
						c2.7-8.1,7.5-15.3,13.8-21c2.2-2.3,4.6-4.3,7.3-6.1C59.2,61-7.8,76.2,5.4,130c24.7-17.5,38-1.5,39.3,0.6
						c1.2,2.1,10,22.9-17.8,35.7c23.2,25.4,51.6,12.4,61,5.8c-7.3-4.2-13.6-10-18.4-17c-2.5,0.7-5,0.9-7.6,0.5l5.4-3.6
						c-0.8-1.1-2.6-3.6-4.8-6.9c-6.2-4.6-11.3-10.5-14.7-17.4C44.2,120.8,42.4,113.2,42.3,105.5z"/>
				</g>
			</g>
		</g>
	</g>
</g>
</svg>
