<?xml version="1.0" encoding="utf-8"?>
<!-- Generator: Adobe Illustrator 25.2.3, SVG Export Plug-In . SVG Version: 6.00 Build 0)  -->
<svg version="1.1" id="Layer_1" xmlns="http://www.w3.org/2000/svg" xmlns:xlink="http://www.w3.org/1999/xlink" x="0px" y="0px"
	 viewBox="0 0 134.6 45" style="enable-background:new 0 0 134.6 45;" xml:space="preserve">
<style type="text/css">
	.Graphic_x0020_Style_x0020_3{fill:url(#SVGID_1_);}
	.st0{fill:#B1B3B5;}
	.st1{fill:#FFFFFF;}
	.st2{fill:#FFFFFF;stroke:#FFFFFF;stroke-width:0.1944;stroke-miterlimit:10;}
	.st3{fill:#5BC8F3;}
	.st4{fill:url(#SVGID_2_);}
	.st5{fill:url(#SVGID_3_);}
	.st6{fill:url(#SVGID_4_);}
</style>
<linearGradient id="SVGID_1_" gradientUnits="userSpaceOnUse" x1="15.6344" y1="-368.9821" x2="14.9273" y2="-368.275">
	<stop  offset="0" style="stop-color:#EE4447"/>
	<stop  offset="1" style="stop-color:#C5166C"/>
</linearGradient>
<g>
	<g>
		<g>
			<g>
				<g>
					<path class="st0" d="M123.9,0H10.7c-0.4,0-0.8,0-1.2,0c-0.3,0-0.7,0-1,0C7.7,0,7,0.1,6.2,0.2C5.5,0.3,4.8,0.6,4.1,0.9
						C3.4,1.3,2.8,1.7,2.2,2.2c-0.5,0.5-1,1.2-1.3,1.8C0.6,4.8,0.3,5.5,0.2,6.2C0.1,7,0,7.7,0,8.5c0,0.3,0,0.7,0,1
						c0,0.4,0,0.8,0,1.2v23.5c0,0.4,0,0.8,0,1.2c0,0.3,0,0.7,0,1c0,0.8,0.1,1.5,0.2,2.3c0.1,0.8,0.4,1.5,0.7,2.1
						c0.3,0.7,0.8,1.3,1.3,1.8c0.5,0.5,1.1,1,1.8,1.3c0.7,0.4,1.4,0.6,2.1,0.7C7,44.9,7.7,45,8.5,45c0.3,0,0.7,0,1,0
						c0.4,0,0.8,0,1.2,0h113.2c0.4,0,0.8,0,1.2,0c0.3,0,0.7,0,1,0c0.8,0,1.5-0.1,2.2-0.2c0.8-0.1,1.5-0.4,2.1-0.7
						c0.7-0.3,1.3-0.8,1.8-1.3c0.5-0.5,1-1.1,1.3-1.8c0.3-0.7,0.6-1.4,0.7-2.1c0.1-0.7,0.2-1.5,0.2-2.3c0-0.3,0-0.7,0-1
						c0-0.4,0-0.8,0-1.2V10.7c0-0.4,0-0.8,0-1.2c0-0.3,0-0.7,0-1c0-0.8-0.1-1.5-0.2-2.3c-0.1-0.8-0.4-1.5-0.7-2.1
						c-0.3-0.7-0.8-1.3-1.3-1.8c-0.5-0.5-1.1-1-1.8-1.3c-0.7-0.3-1.4-0.6-2.1-0.7c-0.7-0.1-1.5-0.2-2.2-0.2c-0.3,0-0.7,0-1,0
						C124.7,0,124.3,0,123.9,0L123.9,0z"/>
					<path d="M9.5,44c-0.3,0-0.7,0-1,0c-0.6,0-1.4-0.1-2.1-0.2c-0.7-0.1-1.3-0.3-1.9-0.6c-0.6-0.3-1.1-0.7-1.6-1.1
						c-0.5-0.5-0.8-1-1.1-1.6c-0.3-0.6-0.5-1.2-0.6-1.9C1,37.9,1,37.1,1,36.5c0-0.2,0-1,0-1v-26c0,0,0-0.8,0-1c0-0.6,0-1.4,0.2-2.1
						c0.1-0.7,0.3-1.3,0.6-1.9c0.3-0.6,0.7-1.1,1.1-1.6c0.5-0.5,1-0.9,1.6-1.2c0.6-0.3,1.2-0.5,1.9-0.6C7.1,1,7.9,1,8.5,1l1,0h115.6
						l1,0c0.6,0,1.3,0,2.1,0.2c0.7,0.1,1.3,0.3,1.9,0.6c0.6,0.3,1.1,0.7,1.6,1.1c0.5,0.5,0.8,1,1.2,1.6c0.3,0.6,0.5,1.2,0.6,1.9
						c0.1,0.7,0.2,1.4,0.2,2.1c0,0.3,0,0.7,0,1c0,0.4,0,0.8,0,1.2v23.5c0,0.4,0,0.8,0,1.2c0,0.4,0,0.7,0,1c0,0.7-0.1,1.4-0.2,2.1
						c-0.1,0.7-0.3,1.3-0.6,1.9c-0.3,0.6-0.7,1.1-1.1,1.6c-0.5,0.5-1,0.9-1.6,1.2c-0.6,0.3-1.2,0.5-1.9,0.6
						c-0.7,0.1-1.5,0.2-2.1,0.2c-0.3,0-0.7,0-1,0l-1.2,0L9.5,44z"/>
				</g>
			</g>
		</g>
	</g>
	<g>
		<g>
			<path class="st2" d="M47,14c0,0.8-0.2,1.5-0.7,1.9c-0.5,0.6-1.3,0.9-2.1,0.9c-0.8,0-1.6-0.3-2.1-0.9c-0.6-0.6-0.9-1.3-0.9-2.2
				c0-0.9,0.3-1.6,0.9-2.2c0.6-0.6,1.3-0.9,2.1-0.9c0.4,0,0.8,0.1,1.2,0.2c0.4,0.2,0.7,0.4,0.9,0.7l-0.5,0.5
				c-0.4-0.5-0.9-0.7-1.6-0.7c-0.6,0-1.1,0.2-1.6,0.6c-0.4,0.4-0.7,1-0.7,1.7c0,0.7,0.2,1.3,0.7,1.7c0.4,0.4,1,0.6,1.6,0.6
				c0.7,0,1.2-0.2,1.6-0.7c0.3-0.3,0.4-0.7,0.5-1.2h-2.1v-0.7h2.8C46.9,13.8,47,13.9,47,14z"/>
			<path class="st2" d="M51.4,11.6h-2.7v1.8h2.4v0.7h-2.4V16h2.7v0.7H48v-5.8h3.4V11.6z"/>
			<path class="st2" d="M54.6,16.7h-0.8v-5.1h-1.6v-0.7h4v0.7h-1.6V16.7z"/>
			<path class="st2" d="M59.1,16.7v-5.8h0.7v5.8H59.1z"/>
			<path class="st2" d="M63.2,16.7h-0.8v-5.1h-1.6v-0.7h4v0.7h-1.6V16.7z"/>
			<path class="st2" d="M72.4,16c-0.6,0.6-1.3,0.9-2.1,0.9c-0.9,0-1.6-0.3-2.1-0.9c-0.6-0.6-0.9-1.3-0.9-2.2c0-0.9,0.3-1.6,0.9-2.2
				c0.6-0.6,1.3-0.9,2.1-0.9c0.8,0,1.6,0.3,2.1,0.9c0.6,0.6,0.9,1.3,0.9,2.2C73.3,14.7,73,15.4,72.4,16z M68.7,15.5
				c0.4,0.4,1,0.7,1.6,0.7s1.2-0.2,1.6-0.7c0.4-0.4,0.6-1,0.6-1.7c0-0.7-0.2-1.2-0.6-1.7c-0.4-0.4-1-0.7-1.6-0.7s-1.2,0.2-1.6,0.7
				c-0.4,0.4-0.6,1-0.6,1.7C68,14.5,68.3,15,68.7,15.5z"/>
			<path class="st2" d="M74.3,16.7v-5.8h0.9l2.8,4.5h0l0-1.1v-3.4h0.8v5.8H78l-3-4.8h0l0,1.1v3.6H74.3z"/>
		</g>
		<path class="st1" d="M67.1,25.2c-2.3,0-4.2,1.7-4.2,4.1c0,2.4,1.9,4.1,4.2,4.1c2.3,0,4.2-1.8,4.2-4.1C71.2,27,69.4,25.2,67.1,25.2
			z M67.1,31.9c-1.3,0-2.3-1-2.3-2.5c0-1.5,1.1-2.5,2.3-2.5c1.3,0,2.3,1,2.3,2.5C69.4,30.8,68.3,31.9,67.1,31.9z M58,25.2
			c-2.3,0-4.2,1.7-4.2,4.1c0,2.4,1.9,4.1,4.2,4.1c2.3,0,4.2-1.8,4.2-4.1C62.2,27,60.3,25.2,58,25.2z M58,31.9c-1.3,0-2.3-1-2.3-2.5
			c0-1.5,1.1-2.5,2.3-2.5c1.3,0,2.3,1,2.3,2.5C60.4,30.8,59.3,31.9,58,31.9z M47.3,26.5v1.8h4.2c-0.1,1-0.5,1.7-1,2.2
			c-0.6,0.6-1.6,1.3-3.2,1.3c-2.6,0-4.6-2.1-4.6-4.7s2-4.7,4.6-4.7c1.4,0,2.4,0.5,3.2,1.3l1.2-1.2c-1-1-2.4-1.8-4.4-1.8
			c-3.5,0-6.5,2.9-6.5,6.4c0,3.5,3,6.4,6.5,6.4c1.9,0,3.4-0.6,4.5-1.8c1.2-1.2,1.5-2.8,1.5-4.1c0-0.4,0-0.8-0.1-1.1H47.3z
			 M91.3,27.9c-0.3-0.9-1.4-2.6-3.5-2.6c-2.1,0-3.9,1.7-3.9,4.1c0,2.3,1.8,4.1,4.1,4.1c1.9,0,3-1.2,3.4-1.8L90,30.7
			c-0.5,0.7-1.1,1.1-2,1.1c-0.9,0-1.6-0.4-2-1.3l5.5-2.3L91.3,27.9z M85.7,29.2c0-1.6,1.2-2.4,2.2-2.4c0.7,0,1.3,0.4,1.5,0.9
			L85.7,29.2z M81.2,33.3H83V21.1h-1.8V33.3z M78.2,26.2L78.2,26.2c-0.5-0.5-1.3-0.9-2.2-0.9c-2.1,0-4,1.8-4,4.2
			c0,2.3,1.9,4.1,4,4.1c1,0,1.8-0.4,2.2-0.9h0.1v0.6c0,1.6-0.8,2.4-2.2,2.4c-1.1,0-1.8-0.8-2.1-1.5l-1.6,0.7
			c0.5,1.1,1.7,2.4,3.7,2.4c2.1,0,3.9-1.3,3.9-4.3v-7.4h-1.7V26.2z M76.1,31.9c-1.3,0-2.3-1-2.3-2.5c0-1.5,1-2.5,2.3-2.5
			c1.2,0,2.2,1.1,2.2,2.5C78.3,30.8,77.4,31.9,76.1,31.9z M99.8,21.1h-4.3v12.2h1.8v-4.6h2.5c2,0,4-1.5,4-3.8S101.8,21.1,99.8,21.1z
			 M99.9,27h-2.6v-4.2h2.6c1.4,0,2.1,1.1,2.1,2.1C102,25.8,101.2,27,99.9,27z M111.1,25.2c-1.3,0-2.7,0.6-3.2,1.9l1.6,0.7
			c0.3-0.7,1-0.9,1.7-0.9c0.9,0,1.9,0.6,1.9,1.6v0.1c-0.3-0.2-1-0.5-1.9-0.5c-1.7,0-3.5,1-3.5,2.7c0,1.6,1.4,2.7,3,2.7
			c1.2,0,1.9-0.5,2.3-1.2h0.1v0.9h1.8v-4.7C114.8,26.4,113.2,25.2,111.1,25.2z M110.9,31.9c-0.6,0-1.4-0.3-1.4-1
			c0-0.9,1-1.3,1.9-1.3c0.8,0,1.2,0.2,1.7,0.4C112.9,31.1,111.9,31.9,110.9,31.9z M121.2,25.5l-2.1,5.3H119l-2.2-5.3h-2l3.2,7.4
			l-1.8,4.1h1.9l5-11.5H121.2z M104.8,33.3h1.8V21.1h-1.8V33.3z"/>
		<g>
			<g>
				<g>
					<path class="st3" d="M11,11.4c-0.3,0.3-0.4,0.8-0.4,1.4v21.5c0,0.6,0.2,1.1,0.4,1.4l0.1,0.1l12-12v-0.1v-0.1L11,11.4L11,11.4z"
						/>
					<linearGradient id="SVGID_2_" gradientUnits="userSpaceOnUse" x1="31.0736" y1="23.5327" x2="7.5678" y2="23.5327">
						<stop  offset="0" style="stop-color:#FFDF00"/>
						<stop  offset="0.4087" style="stop-color:#FBBC0E"/>
						<stop  offset="0.7754" style="stop-color:#F9A418"/>
						<stop  offset="1" style="stop-color:#F89B1C"/>
					</linearGradient>
					<path class="st4" d="M27.1,27.7l-4-4v-0.1v-0.1l4-4l0.1,0.1l4.8,2.7c1.4,0.8,1.4,2,0,2.8L27.1,27.7L27.1,27.7z"/>
					<linearGradient id="SVGID_3_" gradientUnits="userSpaceOnUse" x1="24.9736" y1="25.7619" x2="2.8652" y2="47.8703">
						<stop  offset="0" style="stop-color:#EE4447"/>
						<stop  offset="1" style="stop-color:#C5166C"/>
					</linearGradient>
					<path class="st5" d="M27.2,27.6l-4.1-4.1L11,35.6c0.4,0.5,1.2,0.5,2,0.1L27.2,27.6"/>
					<linearGradient id="SVGID_4_" gradientUnits="userSpaceOnUse" x1="2.7667" y1="-0.9041" x2="20.8176" y2="17.1468">
						<stop  offset="0" style="stop-color:#269E6F"/>
						<stop  offset="5.089003e-02" style="stop-color:#2BA06F"/>
						<stop  offset="0.4663" style="stop-color:#53B26B"/>
						<stop  offset="0.7971" style="stop-color:#6BBD69"/>
						<stop  offset="1" style="stop-color:#74C168"/>
					</linearGradient>
					<path class="st6" d="M27.2,19.4L13,11.4c-0.8-0.5-1.6-0.4-2,0.1l12.1,12.1L27.2,19.4z"/>
				</g>
			</g>
		</g>
	</g>
</g>
</svg>
