<?xml version="1.0" encoding="utf-8"?>
<!-- Generator: Adobe Illustrator 27.4.1, SVG Export Plug-In . SVG Version: 6.00 Build 0)  -->
<svg version="1.1" id="Layer_1" xmlns="http://www.w3.org/2000/svg" xmlns:xlink="http://www.w3.org/1999/xlink" x="0px" y="0px"
	 viewBox="0 0 20 15" style="enable-background:new 0 0 20 15;" xml:space="preserve">
<style type="text/css">
	.st0{fill:none;stroke:#CD0511;stroke-linecap:round;stroke-linejoin:round;stroke-miterlimit:10;}
	.st1{fill:#CD0511;}
</style>
<g>
	<g>
		<path class="st0" d="M16.3,0.7H3.7c-0.6,0-1,0.5-1,1v8.2c0,0.6,0.5,1,1,1h1v3.4l3.4-3.4h8.2c0.6,0,1-0.5,1-1V1.7
			C17.3,1.1,16.9,0.7,16.3,0.7z"/>
		<path class="st1" d="M6.7,6.3c0.4,0,0.7-0.3,0.7-0.7C7.4,5.3,7.1,5,6.7,5C6.4,5,6.1,5.3,6.1,5.6C6.1,6,6.4,6.3,6.7,6.3z"/>
		<path class="st1" d="M10,6.3c0.4,0,0.7-0.3,0.7-0.7C10.7,5.3,10.4,5,10,5S9.3,5.3,9.3,5.6C9.3,6,9.6,6.3,10,6.3z"/>
		<path class="st1" d="M13.3,6.3C13.7,6.3,14,6,14,5.6c0-0.4-0.3-0.7-0.7-0.7s-0.7,0.3-0.7,0.7S12.9,6.3,13.3,6.3z"/>
	</g>
</g>
</svg>
