<?xml version="1.0" encoding="utf-8"?>
<!-- Generator: Adobe Illustrator 27.4.1, SVG Export Plug-In . SVG Version: 6.00 Build 0)  -->
<svg version="1.1" id="Layer_1" xmlns="http://www.w3.org/2000/svg" xmlns:xlink="http://www.w3.org/1999/xlink" x="0px" y="0px"
	 viewBox="0 0 50 50" style="enable-background:new 0 0 50 50;" xml:space="preserve">
<style type="text/css">
	.st0{fill:none;stroke:#CD0511;stroke-linecap:round;stroke-linejoin:round;stroke-miterlimit:10;}
</style>
<g>
	<polyline class="st0" points="12,25 10.2,25 13.9,31.5 17.6,25 15.8,25 	"/>
	<path class="st0" d="M15.7,25c0-5.7,4.6-10.2,10.2-10.2S36.2,19.3,36.2,25S31.6,35.2,26,35.2c-3.1,0-5.9-1.4-7.7-3.5"/>
	<polyline class="st0" points="26.2,18.4 26.2,25.8 30.5,30.1 	"/>
	<path class="st0" d="M29.8,38.3c-1.2,0.4-2.5,0.5-3.8,0.5"/>
	<path class="st0" d="M36.1,34.5c-0.9,1-2,1.8-3.1,2.5"/>
	<path class="st0" d="M39.4,28.5c-0.3,1.2-0.8,2.4-1.4,3.4"/>
	<path class="st0" d="M12.2,25c0-7.6,6.2-13.8,13.8-13.8S39.8,17.4,39.8,25"/>
</g>
</svg>
