<?xml version="1.0" encoding="utf-8"?>
<!-- Generator: Adobe Illustrator 27.5.0, SVG Export Plug-In . SVG Version: 6.00 Build 0)  -->
<svg version="1.1" id="Layer_1" xmlns="http://www.w3.org/2000/svg" xmlns:xlink="http://www.w3.org/1999/xlink" x="0px" y="0px"
	 viewBox="0 0 56.7 56.7" style="enable-background:new 0 0 56.7 56.7;" xml:space="preserve">
<style type="text/css">
	.st0{fill:none;stroke:#E20000;stroke-linecap:round;stroke-linejoin:round;stroke-miterlimit:9.9996;}
</style>
<g>
	<g>
		<rect x="26.2" y="42.2" class="st0" width="9.1" height="9.1"/>
		<rect x="39.2" y="40" transform="matrix(0.9803 -0.1974 0.1974 0.9803 -7.9284 9.508)" class="st0" width="9.1" height="9.1"/>
		<rect x="28.9" y="28.6" transform="matrix(0.4637 -0.886 0.886 0.4637 -11.4699 47.4232)" class="st0" width="9.1" height="9.1"/>
	</g>
	<path class="st0" d="M30.4,23.3c-1-0.5-2.2-0.8-3.4-0.8c0,0-0.1,0-0.1,0"/>
	<g>
		<ellipse transform="matrix(0.8092 -0.5875 0.5875 0.8092 -2.022 26.4345)" class="st0" cx="39.7" cy="16.3" rx="6.1" ry="4"/>
		<path class="st0" d="M44.1,12.1c0,0-0.2,3.6-4.8,4.9s-4,3.3-4,3.3"/>
		<ellipse transform="matrix(0.3853 -0.9228 0.9228 0.3853 14.2629 37.3481)" class="st0" cx="35.2" cy="8" rx="4.4" ry="3"/>
		<path class="st0" d="M36.4,3.7c0,0,1.2,2.3-1.2,4.9c-2.4,2.5-1.3,3.7-1.3,3.7"/>
	</g>
	<g>
		<g>
			<g>
				<path class="st0" d="M27.4,19.7c0,1.9-0.7,3.6-1.8,5"/>
				<path class="st0" d="M13.4,24.6c-1.1-1.4-1.8-3.1-1.8-5c0-4.4,3.5-7.9,7.9-7.9s7.9,3.5,7.9,7.9"/>
				<path class="st0" d="M21,17.1c1.3,0,2.4,1.1,2.4,2.4"/>
				<path class="st0" d="M10,26.3c-1.3,0-2.4,1.1-2.4,2.4"/>
				<path class="st0" d="M20.1,37.4c-1.8,0.1-3.7-0.4-5.3-1.5c-1.6-1.1-2.7-2.8-3.2-4.5c1.8-0.1,3.7,0.4,5.3,1.5
					c0.7,0.5,1.2,1,1.7,1.6c-0.2-0.7-0.3-1.5-0.3-2.4c0-2,0.7-3.8,1.8-5.2c1.1,1.4,1.8,3.3,1.8,5.2c0,0.8-0.1,1.6-0.3,2.4"/>
				<path class="st0" d="M15,36.1c-1,0.5-2.1,0.7-3.3,0.7c-4.4,0-7.9-3.5-7.9-7.9s3.5-7.9,7.9-7.9c0,0,0.1,0,0.1,0"/>
				<path class="st0" d="M20.1,50.4h-0.6c-1.1,0-1.9-0.9-1.9-1.9v-11"/>
			</g>
		</g>
	</g>
</g>
</svg>
