<?xml version="1.0" encoding="UTF-8"?>
<svg id="Layer_1" data-name="Layer 1" xmlns="http://www.w3.org/2000/svg" version="1.1" viewBox="0 0 170.1 170.1">
  <defs>
    <style>
      .cls-1 {
        fill: none;
        stroke: #cd0511;
        stroke-linecap: round;
        stroke-linejoin: round;
        stroke-width: 2px;
      }

      .cls-2 {
        fill: #cd0511;
        stroke-width: 0px;
      }
    </style>
  </defs>
  <path class="cls-1" d="M137.1,102.3c-1.9,5.9,5.6,16.7,2,21.6-3.6,5-16.2,1.2-21.2,4.8-4.9,3.6-5.2,16.7-11.1,18.6-5.7,1.9-13.6-8.6-19.9-8.6s-14.2,10.4-19.9,8.6c-5.9-1.9-6.1-15.1-11.1-18.6-4.9-3.6-17.5.2-21.1-4.8-3.6-4.9,3.9-15.7,2-21.6-1.9-5.7-14.3-10-14.3-16.3s12.4-10.6,14.3-16.3c1.9-5.9-5.6-16.7-2-21.6,3.6-5,16.1-1.2,21.1-4.8,4.9-3.6,5.2-16.7,11.1-18.6,5.7-1.9,13.6,8.6,19.9,8.6s14.2-10.4,19.9-8.6c5.9,1.9,6.2,15.1,11.1,18.6,4.9,3.6,17.5-.2,21.1,4.8,3.6,4.9-3.9,15.7-2,21.6,1.9,5.7,14.3,10,14.3,16.3s-12.4,10.6-14.3,16.3Z"/>
  <g>
    <path class="cls-2" d="M72.1,96.7h-3.1l-12.5-19.3h-.1c0,.5,0,1.1.1,1.8,0,.7,0,1.4.1,2.1s0,1.5,0,2.3v13.2h-2.5v-23h3.1l12.5,19.2h.1c0-.4,0-.9,0-1.6s0-1.4,0-2.2,0-1.5,0-2.2v-13.3h2.5v23Z"/>
    <path class="cls-2" d="M91.2,96.7h-12.8v-23h12.8v2.4h-10.1v7.4h9.5v2.3h-9.5v8.5h10.1v2.4Z"/>
    <path class="cls-2" d="M122.4,73.7l-6.1,23h-2.7l-4.6-15.5c-.1-.4-.3-.9-.4-1.3s-.2-.9-.3-1.3-.2-.8-.3-1.1-.1-.5-.1-.7c0,.2,0,.4-.1.7s-.1.7-.2,1.1-.2.8-.3,1.3-.2.9-.4,1.4l-4.4,15.5h-2.7l-6.1-23h2.8l3.7,14.4c.1.5.2,1,.4,1.4s.2.9.3,1.4.2.9.2,1.3c0,.4.1.8.2,1.2,0-.4.1-.8.2-1.3,0-.4.2-.9.3-1.4s.2-.9.3-1.4.2-.9.4-1.4l4.1-14.3h2.8l4.3,14.4c.1.5.3,1,.4,1.5s.2,1,.3,1.4.2.9.3,1.3.1.8.2,1.2c0-.5.2-1.1.3-1.6s.2-1.2.4-1.8.3-1.3.5-1.9l3.7-14.4h2.8Z"/>
  </g>
</svg>