<?xml version="1.0" encoding="utf-8"?>
<!-- Generator: Adobe Illustrator 27.4.1, SVG Export Plug-In . SVG Version: 6.00 Build 0)  -->
<svg version="1.1" id="Layer_1" xmlns="http://www.w3.org/2000/svg" xmlns:xlink="http://www.w3.org/1999/xlink" x="0px" y="0px"
	 viewBox="0 0 90 131" style="enable-background:new 0 0 90 131;" xml:space="preserve">
<style type="text/css">
	.st0{fill:none;stroke:#BB9B52;}
	.st1{fill:#BB9B52;}
	.st2{fill:none;stroke:#EDC873;stroke-linejoin:bevel;stroke-miterlimit:10;}
	.st3{fill:none;stroke:#EDC873;stroke-miterlimit:10;}
	.st4{fill:none;stroke:#BB9B52;stroke-linejoin:bevel;}
	.st5{fill:none;stroke:#BB9B52;stroke-miterlimit:10;}
	.st6{fill:#161616;}
	.st7{fill:#898989;}
	.st8{fill:#FFFFFF;}
</style>
<path class="st0" d="M1,0.5H0.5V1v128v0.7l0.7-0.3L45,112.3l43.8,17.2l0.7,0.3V129V1V0.5H89H1z"/>
<path class="st4" d="M34.4,39.1l-3.8,9.8l6.8-2l3.7,5.9L45,41.7L49,52.8l3.7-5.9l6.8,2l-3.8-9.8"/>
<path class="st5" d="M60.9,26.6c-0.9-0.7-1-2-0.3-2.9l0,0c1-1.2,0.4-2.9-1.1-3.3l-0.1,0c-1.1-0.3-1.8-1.4-1.5-2.6l0,0
	c0.4-1.5-0.9-2.8-2.4-2.6h0c-1.2,0.2-2.3-0.6-2.4-1.7v0c-0.3-1.5-2-2.2-3.3-1.4l0,0c-1,0.6-2.3,0.3-3-0.6c-0.9-1.3-2.7-1.3-3.6,0
	l0,0c-0.6,1-2,1.2-3,0.6c-1.3-0.8-3-0.1-3.3,1.4v0c-0.2,1.1-1.3,1.9-2.5,1.7h0c-1.5-0.2-2.8,1.1-2.4,2.6l0,0.1
	c0.3,1.1-0.4,2.2-1.5,2.6h0c-1.5,0.4-2.1,2.2-1.1,3.4l0,0.1c0.7,0.9,0.6,2.2-0.3,2.9l0,0c-1.2,1-1,2.8,0.4,3.5l0.1,0
	c1,0.5,1.5,1.8,0.9,2.8l0,0c-0.7,1.4,0.3,3,1.8,3h0c1.2,0.1,2.1,1,2,2.2v0c-0.1,1.5,1.5,2.6,2.9,2.1h0c1.1-0.4,2.3,0.1,2.8,1.2v0
	c0.6,1.4,2.4,1.8,3.5,0.7l0,0c0.8-0.8,2.2-0.8,3,0c1.1,1.1,3,0.7,3.5-0.7l0,0c0.4-1.1,1.7-1.6,2.8-1.2c1.4,0.5,3-0.6,2.9-2.1v-0.1
	c-0.1-1.1,0.8-2.1,2-2.2h0c1.5-0.1,2.5-1.7,1.8-3l0-0.1c-0.5-1-0.1-2.3,0.9-2.8l0,0C61.9,29.4,62.1,27.6,60.9,26.6L60.9,26.6z
	 M45,39.3c-7.2,0-13-5.7-13-12.7c0-7,5.8-12.7,13-12.7c7.2,0,13,5.7,13,12.7C58,33.6,52.2,39.3,45,39.3L45,39.3z"/>
<path class="st5" d="M45,19.5l2.1,4.7l5.1,0.5L48.3,28l1.1,5L45,30.4L40.6,33l1.1-5l-3.8-3.4l5.1-0.5L45,19.5z"/>
<g>
	<path class="st6" d="M10.8,65.1H13c1,0,1.7,0.1,2.2,0.4c0.5,0.3,0.7,0.8,0.7,1.5c0,0.3-0.1,0.6-0.2,0.8c-0.1,0.2-0.3,0.4-0.5,0.6
		c-0.2,0.2-0.5,0.3-0.8,0.3v0.1c0.3,0.1,0.6,0.2,0.9,0.3c0.3,0.1,0.5,0.3,0.6,0.6c0.2,0.3,0.2,0.6,0.2,1c0,0.5-0.1,0.9-0.3,1.2
		c-0.2,0.3-0.5,0.6-0.9,0.8c-0.4,0.2-0.9,0.3-1.5,0.3h-2.7V65.1z M11.7,68.4h1.5c0.7,0,1.2-0.1,1.4-0.3c0.3-0.2,0.4-0.6,0.4-1
		c0-0.4-0.2-0.8-0.5-1c-0.3-0.2-0.8-0.3-1.5-0.3h-1.4V68.4z M11.7,69.2v2.9h1.6c0.7,0,1.2-0.1,1.5-0.4c0.3-0.3,0.4-0.6,0.4-1.1
		c0-0.3-0.1-0.6-0.2-0.8c-0.1-0.2-0.3-0.4-0.6-0.5c-0.3-0.1-0.7-0.2-1.2-0.2H11.7z M22.2,72.9h-4.4v-7.9h4.4v0.8h-3.5v2.5H22v0.8
		h-3.3v2.9h3.5V72.9z M28.4,70.8c0,0.5-0.1,0.9-0.3,1.2c-0.2,0.3-0.6,0.6-1,0.7C26.7,73,26.2,73,25.6,73c-0.3,0-0.6,0-0.8,0
		c-0.3,0-0.5-0.1-0.7-0.1c-0.2-0.1-0.4-0.1-0.6-0.2v-0.9c0.3,0.1,0.6,0.2,1,0.3c0.4,0.1,0.8,0.1,1.2,0.1c0.4,0,0.7-0.1,1-0.2
		c0.3-0.1,0.5-0.3,0.6-0.5c0.1-0.2,0.2-0.4,0.2-0.7c0-0.3-0.1-0.5-0.2-0.7c-0.1-0.2-0.3-0.3-0.6-0.5c-0.3-0.2-0.6-0.3-1.1-0.5
		c-0.3-0.1-0.6-0.2-0.9-0.4c-0.3-0.1-0.5-0.3-0.6-0.5c-0.2-0.2-0.3-0.4-0.4-0.6c-0.1-0.2-0.1-0.5-0.1-0.8c0-0.4,0.1-0.8,0.3-1.1
		c0.2-0.3,0.5-0.5,0.9-0.7c0.4-0.2,0.8-0.2,1.3-0.2c0.4,0,0.8,0,1.2,0.1c0.4,0.1,0.7,0.2,1,0.3l-0.3,0.8c-0.3-0.1-0.6-0.2-0.9-0.3
		c-0.3-0.1-0.6-0.1-1-0.1c-0.3,0-0.6,0.1-0.9,0.2c-0.2,0.1-0.4,0.2-0.5,0.4c-0.1,0.2-0.2,0.4-0.2,0.6c0,0.3,0.1,0.5,0.2,0.7
		c0.1,0.2,0.3,0.3,0.6,0.5c0.3,0.1,0.6,0.3,1,0.4c0.5,0.2,0.9,0.3,1.2,0.5c0.3,0.2,0.6,0.4,0.7,0.7C28.3,70.1,28.4,70.4,28.4,70.8z
		 M32.4,72.9h-0.9v-7H29v-0.8h5.8v0.8h-2.5V72.9z M45.8,69c0,0.6-0.1,1.2-0.2,1.7c-0.2,0.5-0.4,0.9-0.7,1.3
		c-0.3,0.4-0.7,0.6-1.1,0.8c-0.4,0.2-1,0.3-1.6,0.3c-0.6,0-1.1-0.1-1.6-0.3c-0.5-0.2-0.8-0.5-1.1-0.8c-0.3-0.4-0.5-0.8-0.7-1.3
		c-0.1-0.5-0.2-1-0.2-1.7c0-0.8,0.1-1.5,0.4-2.1c0.3-0.6,0.7-1.1,1.2-1.4c0.5-0.3,1.2-0.5,2-0.5c0.8,0,1.4,0.2,2,0.5
		c0.5,0.3,0.9,0.8,1.2,1.4C45.6,67.5,45.8,68.2,45.8,69z M39.5,69c0,0.7,0.1,1.2,0.3,1.7c0.2,0.5,0.5,0.9,0.9,1.1
		c0.4,0.3,0.9,0.4,1.5,0.4c0.6,0,1.1-0.1,1.5-0.4c0.4-0.3,0.7-0.6,0.9-1.1c0.2-0.5,0.3-1.1,0.3-1.7c0-1-0.2-1.8-0.6-2.4
		c-0.4-0.6-1.1-0.9-2-0.9c-0.6,0-1.1,0.1-1.5,0.4c-0.4,0.3-0.7,0.6-0.9,1.1C39.6,67.7,39.5,68.3,39.5,69z M53.6,72.9h-1.1l-4.3-6.6
		h0c0,0.2,0,0.4,0,0.6c0,0.2,0,0.5,0,0.7c0,0.3,0,0.5,0,0.8v4.5h-0.8v-7.9h1l4.3,6.6h0c0-0.1,0-0.3,0-0.5c0-0.2,0-0.5,0-0.7
		c0-0.3,0-0.5,0-0.7v-4.5h0.9V72.9z M55.8,72.9v-7.9h0.9v7h3.5v0.8H55.8z M61.5,72.9v-7.9h0.9v7.9H61.5z M70.7,72.9h-1.1l-4.3-6.6h0
		c0,0.2,0,0.4,0,0.6c0,0.2,0,0.5,0,0.7c0,0.3,0,0.5,0,0.8v4.5h-0.8v-7.9h1l4.3,6.6h0c0-0.1,0-0.3,0-0.5c0-0.2,0-0.5,0-0.7
		c0-0.3,0-0.5,0-0.7v-4.5h0.9V72.9z M77.3,72.9h-4.4v-7.9h4.4v0.8h-3.5v2.5h3.3v0.8h-3.3v2.9h3.5V72.9z M13.6,84.9h-0.9v-7h-2.5
		v-0.8h5.8v0.8h-2.5V84.9z M19.4,77.1c0.6,0,1.2,0.1,1.6,0.2c0.4,0.2,0.7,0.4,0.9,0.7c0.2,0.3,0.3,0.7,0.3,1.2c0,0.4-0.1,0.8-0.2,1
		c-0.2,0.3-0.3,0.5-0.6,0.7c-0.2,0.2-0.5,0.3-0.8,0.4l2.2,3.5h-1.1l-1.9-3.3h-1.6v3.3h-0.9v-7.9H19.4z M19.3,77.9h-1.2v3h1.2
		c0.6,0,1.1-0.1,1.4-0.4c0.3-0.3,0.5-0.6,0.5-1.2c0-0.5-0.2-0.9-0.5-1.1C20.5,78,20,77.9,19.3,77.9z M29,84.9l-1-2.5h-3.1l-1,2.5H23
		l3.1-7.9h0.8l3.1,7.9H29z M27.7,81.6l-0.9-2.5c0-0.1-0.1-0.2-0.1-0.3c0-0.1-0.1-0.3-0.1-0.5c-0.1-0.2-0.1-0.3-0.1-0.4
		c0,0.1-0.1,0.3-0.1,0.4c0,0.1-0.1,0.3-0.1,0.4c0,0.1-0.1,0.2-0.1,0.3l-0.9,2.5H27.7z M37.3,80.9c0,0.9-0.2,1.6-0.5,2.2
		c-0.3,0.6-0.8,1-1.4,1.3c-0.6,0.3-1.3,0.4-2.2,0.4H31v-7.9h2.4c0.8,0,1.5,0.1,2.1,0.4c0.6,0.3,1,0.7,1.3,1.3
		C37.1,79.4,37.3,80.1,37.3,80.9z M36.3,81c0-0.7-0.1-1.3-0.4-1.7c-0.2-0.5-0.6-0.8-1-1c-0.5-0.2-1-0.3-1.7-0.3h-1.3v6.3H33
		c1.1,0,1.9-0.3,2.4-0.8C36,82.8,36.3,82,36.3,81z M39,84.9v-7.9h0.9v7.9H39z M48.2,84.9h-1.1l-4.3-6.6h0c0,0.2,0,0.4,0,0.6
		c0,0.2,0,0.5,0,0.7c0,0.3,0,0.5,0,0.8v4.5h-0.8v-7.9h1l4.3,6.6h0c0-0.1,0-0.3,0-0.5c0-0.2,0-0.5,0-0.7c0-0.3,0-0.5,0-0.7v-4.5h0.9
		V84.9z M53.7,80.8h2.7v3.8c-0.4,0.1-0.8,0.2-1.3,0.3C54.8,85,54.3,85,53.7,85c-0.8,0-1.5-0.2-2.1-0.5c-0.6-0.3-1-0.8-1.3-1.4
		C50.1,82.6,50,81.8,50,81c0-0.8,0.2-1.5,0.5-2.1c0.3-0.6,0.8-1.1,1.4-1.4c0.6-0.3,1.3-0.5,2.2-0.5c0.4,0,0.9,0,1.2,0.1
		c0.4,0.1,0.8,0.2,1.1,0.3L56,78.2c-0.3-0.1-0.6-0.2-1-0.3c-0.3-0.1-0.7-0.1-1.1-0.1c-0.6,0-1.2,0.1-1.6,0.4c-0.5,0.3-0.8,0.6-1,1.1
		c-0.2,0.5-0.4,1.1-0.4,1.7c0,0.7,0.1,1.2,0.3,1.7c0.2,0.5,0.5,0.9,1,1.1c0.4,0.3,1,0.4,1.7,0.4c0.4,0,0.7,0,0.9-0.1
		c0.3,0,0.5-0.1,0.7-0.2v-2.4h-1.8V80.8z M66.1,84.9l-1-2.5H62l-1,2.5h-0.9l3.1-7.9H64l3.1,7.9H66.1z M64.9,81.6L64,79.2
		c0-0.1-0.1-0.2-0.1-0.3c0-0.1-0.1-0.3-0.1-0.5c-0.1-0.2-0.1-0.3-0.1-0.4c0,0.1-0.1,0.3-0.1,0.4c0,0.1-0.1,0.3-0.1,0.4
		c0,0.1-0.1,0.2-0.1,0.3l-0.9,2.5H64.9z M70.2,77.1c1,0,1.8,0.2,2.2,0.6c0.5,0.4,0.7,1,0.7,1.7c0,0.3-0.1,0.6-0.2,1
		c-0.1,0.3-0.3,0.6-0.5,0.8c-0.2,0.2-0.6,0.4-1,0.5c-0.4,0.1-0.9,0.2-1.5,0.2h-1v3.1h-0.9v-7.9H70.2z M70.1,77.9h-1.1v3.2h0.9
		c0.5,0,0.9-0.1,1.3-0.2c0.3-0.1,0.6-0.3,0.8-0.5c0.2-0.2,0.3-0.6,0.3-1c0-0.5-0.2-0.9-0.5-1.2C71.4,78,70.9,77.9,70.1,77.9z
		 M76.8,77.1c1,0,1.8,0.2,2.2,0.6c0.5,0.4,0.7,1,0.7,1.7c0,0.3-0.1,0.6-0.2,1c-0.1,0.3-0.3,0.6-0.5,0.8c-0.2,0.2-0.6,0.4-1,0.5
		c-0.4,0.1-0.9,0.2-1.5,0.2h-1v3.1h-0.9v-7.9H76.8z M76.8,77.9h-1.1v3.2h0.9c0.5,0,0.9-0.1,1.3-0.2c0.3-0.1,0.6-0.3,0.8-0.5
		c0.2-0.2,0.3-0.6,0.3-1c0-0.5-0.2-0.9-0.5-1.2C78,78,77.5,77.9,76.8,77.9z"/>
	<path class="st7" d="M9,91.5c-0.3,0-0.5,0.1-0.7,0.2c-0.2,0.1-0.4,0.2-0.5,0.4c-0.1,0.2-0.2,0.4-0.3,0.7c-0.1,0.3-0.1,0.6-0.1,0.9
		c0,0.5,0.1,0.8,0.2,1.2c0.1,0.3,0.3,0.6,0.5,0.7c0.2,0.2,0.5,0.2,0.9,0.2c0.3,0,0.5,0,0.8-0.1c0.3-0.1,0.5-0.1,0.9-0.2v1.1
		c-0.3,0.1-0.6,0.2-0.8,0.3C9.6,97,9.3,97,8.9,97c-0.7,0-1.2-0.1-1.6-0.4c-0.4-0.3-0.7-0.7-0.9-1.2C6.1,95,6,94.4,6,93.7
		c0-0.5,0.1-0.9,0.2-1.3c0.1-0.4,0.3-0.8,0.6-1c0.3-0.3,0.6-0.5,0.9-0.7c0.4-0.2,0.8-0.2,1.3-0.2c0.3,0,0.6,0,1,0.1
		c0.3,0.1,0.6,0.2,0.9,0.3L10.5,92c-0.2-0.1-0.5-0.2-0.7-0.3C9.5,91.6,9.3,91.5,9,91.5z M16,96.9l-0.5-1.5h-2.3l-0.5,1.5h-1.5
		l2.3-6.5h1.7l2.3,6.5H16z M15.2,94.3l-0.5-1.5c0-0.1-0.1-0.2-0.1-0.4c0-0.2-0.1-0.3-0.1-0.5c0-0.2-0.1-0.3-0.1-0.4
		c0,0.1-0.1,0.3-0.1,0.4c0,0.2-0.1,0.3-0.1,0.5c0,0.2-0.1,0.3-0.1,0.3l-0.5,1.5H15.2z M20.3,90.5c0.8,0,1.4,0.2,1.8,0.5
		c0.4,0.4,0.6,0.8,0.6,1.5c0,0.3,0,0.6-0.1,0.8c-0.1,0.3-0.2,0.5-0.4,0.7c-0.2,0.2-0.4,0.4-0.8,0.5c-0.3,0.1-0.7,0.2-1.2,0.2h-0.6
		v2.3h-1.4v-6.4H20.3z M20.3,91.6h-0.6v1.9h0.4c0.3,0,0.5,0,0.7-0.1c0.2-0.1,0.3-0.2,0.4-0.3c0.1-0.1,0.2-0.3,0.2-0.6
		c0-0.3-0.1-0.5-0.3-0.7C20.9,91.7,20.6,91.6,20.3,91.6z M23.9,96.9v-6.4h1.4v6.4H23.9z M29.4,96.9H28v-5.3h-1.7v-1.1h4.9v1.1h-1.7
		V96.9z M36,96.9l-0.5-1.5h-2.3l-0.5,1.5h-1.5l2.3-6.5h1.7l2.3,6.5H36z M35.3,94.3l-0.5-1.5c0-0.1-0.1-0.2-0.1-0.4
		c0-0.2-0.1-0.3-0.1-0.5c0-0.2-0.1-0.3-0.1-0.4c0,0.1-0.1,0.3-0.1,0.4c0,0.2-0.1,0.3-0.1,0.5c0,0.2-0.1,0.3-0.1,0.3l-0.5,1.5H35.3z
		 M38.3,96.9v-6.4h1.4v5.3h2.6v1.1H38.3z M47.1,96.9h-1.3v-6.4h3.7v1.1h-2.3v1.7h2.2v1.1h-2.2V96.9z M50.7,96.9v-6.4h1.4v6.4H50.7z
		 M59.4,96.9h-1.7l-2.8-4.9h0c0,0.2,0,0.4,0,0.6c0,0.2,0,0.4,0,0.6c0,0.2,0,0.4,0,0.6v3h-1.2v-6.4h1.7l2.8,4.8h0c0-0.2,0-0.4,0-0.6
		c0-0.2,0-0.4,0-0.6c0-0.2,0-0.4,0-0.6v-3h1.2V96.9z M64.9,96.9l-0.5-1.5h-2.3l-0.5,1.5h-1.5l2.3-6.5h1.7l2.3,6.5H64.9z M64.1,94.3
		l-0.5-1.5c0-0.1-0.1-0.2-0.1-0.4c0-0.2-0.1-0.3-0.1-0.5c0-0.2-0.1-0.3-0.1-0.4c0,0.1-0.1,0.3-0.1,0.4c0,0.2-0.1,0.3-0.1,0.5
		c0,0.2-0.1,0.3-0.1,0.3l-0.5,1.5H64.1z M72.9,96.9h-1.7l-2.8-4.9h0c0,0.2,0,0.4,0,0.6c0,0.2,0,0.4,0,0.6c0,0.2,0,0.4,0,0.6v3h-1.2
		v-6.4h1.7l2.8,4.8h0c0-0.2,0-0.4,0-0.6c0-0.2,0-0.4,0-0.6c0-0.2,0-0.4,0-0.6v-3h1.2V96.9z M77.3,91.5c-0.3,0-0.5,0.1-0.7,0.2
		c-0.2,0.1-0.4,0.2-0.5,0.4c-0.1,0.2-0.2,0.4-0.3,0.7c-0.1,0.3-0.1,0.6-0.1,0.9c0,0.5,0.1,0.8,0.2,1.2c0.1,0.3,0.3,0.6,0.5,0.7
		c0.2,0.2,0.5,0.2,0.9,0.2c0.3,0,0.5,0,0.8-0.1c0.3-0.1,0.5-0.1,0.9-0.2v1.1c-0.3,0.1-0.6,0.2-0.8,0.3C77.8,97,77.5,97,77.1,97
		c-0.7,0-1.2-0.1-1.6-0.4c-0.4-0.3-0.7-0.7-0.9-1.2c-0.2-0.5-0.3-1.1-0.3-1.7c0-0.5,0.1-0.9,0.2-1.3c0.1-0.4,0.3-0.8,0.6-1
		c0.3-0.3,0.6-0.5,0.9-0.7c0.4-0.2,0.8-0.2,1.3-0.2c0.3,0,0.6,0,1,0.1c0.3,0.1,0.6,0.2,0.9,0.3L78.7,92c-0.2-0.1-0.5-0.2-0.7-0.3
		C77.7,91.6,77.5,91.5,77.3,91.5z M84,96.9h-3.7v-6.4H84v1.1h-2.3V93h2.2v1.1h-2.2v1.7H84V96.9z"/>
</g>
</svg>
