<?xml version="1.0" encoding="utf-8"?>
<!-- Generator: Adobe Illustrator 27.2.0, SVG Export Plug-In . SVG Version: 6.00 Build 0)  -->
<svg version="1.1" id="Layer_1" xmlns="http://www.w3.org/2000/svg" xmlns:xlink="http://www.w3.org/1999/xlink" x="0px" y="0px"
	 viewBox="0 0 50 50" style="enable-background:new 0 0 50 50;" xml:space="preserve">
<style type="text/css">
	.st0{fill:none;stroke:#CD0511;stroke-linejoin:round;stroke-miterlimit:10;}
</style>
<g>
	<path class="st0" d="M27.7,39.4c-1.6,5.6-6.7,9.7-12.8,9.7c-7.4,0-13.3-6-13.3-13.3s6-13.3,13.3-13.3c1.4,0,2.7,0.2,4,0.6"/>
	<path class="st0" d="M31.7,10.9c0.9-0.2,1.9-0.3,2.9-0.3c7.7,0,13.9,6.2,13.9,13.9s-6.1,13.9-13.8,13.9c-5.4,0-10-3-12.3-7.4"/>
	<path class="st0" d="M5.2,22.3c-1.7-2.2-2.6-4.9-2.6-8C2.6,6.9,8.6,1,15.9,1s13.3,6,13.3,13.3c0,3.9-1.7,7.4-4.3,9.8"/>
	<g>
		<path class="st0" d="M19.5,10.2c0-0.5-0.1-1.1-0.3-1.5c-0.1-0.4-0.4-0.7-0.7-0.9c-0.3-0.2-0.7-0.4-1.2-0.5
			c-0.4-0.1-0.9-0.1-1.4-0.1c-0.4,0-0.8,0-1.3,0.1s-0.8,0.2-1.2,0.4c-0.3,0.2-0.6,0.4-0.8,0.8c-0.2,0.3-0.3,0.7-0.3,1.3
			s0.1,0.9,0.3,1.3c0.2,0.3,0.5,0.5,0.8,0.7s0.7,0.3,1.3,0.4c0.4,0.1,0.9,0.2,1.4,0.3c0.5,0.1,1.1,0.2,1.5,0.4
			c0.4,0.1,0.8,0.3,1.3,0.5c0.3,0.2,0.6,0.5,0.8,0.8c0.2,0.3,0.3,0.8,0.3,1.4c0,0.5-0.1,1.1-0.3,1.4c-0.2,0.3-0.5,0.7-0.9,0.9
			c-0.3,0.2-0.8,0.4-1.3,0.5c-0.4,0.1-0.9,0.1-1.4,0.1c-0.6,0-1.3,0-1.8-0.2c-0.5-0.1-1.1-0.4-1.4-0.7c-0.4-0.3-0.7-0.7-0.9-1.3
			c-0.2-0.5-0.3-1.2-0.3-1.8"/>
	</g>
	<line class="st0" x1="15.9" y1="5.7" x2="15.9" y2="19.8"/>
	<path class="st0" d="M18.2,40.1c-0.8,0.8-2,1.4-3.3,1.4c-2.7,0-5-2.6-5-5.9c0-3.3,2.3-5.9,5-5.9c1.1,0,2,0.3,2.8,1.1"/>
	<line class="st0" x1="8.8" y1="34.7" x2="16.9" y2="34.7"/>
	<line class="st0" x1="8.8" y1="36.7" x2="16.9" y2="36.7"/>
	<g>
		<polyline class="st0" points="32.2,19 35.9,25.4 39.7,19 		"/>
		<line class="st0" x1="35.9" y1="25.4" x2="35.9" y2="30.5"/>
		<line class="st0" x1="32.8" y1="25.7" x2="39" y2="25.7"/>
		<line class="st0" x1="32.8" y1="27.8" x2="39" y2="27.8"/>
	</g>
</g>
</svg>
