<?xml version="1.0" encoding="utf-8"?>
<!-- Generator: Adobe Illustrator 27.2.0, SVG Export Plug-In . SVG Version: 6.00 Build 0)  -->
<svg version="1.1" id="Layer_1" xmlns="http://www.w3.org/2000/svg" xmlns:xlink="http://www.w3.org/1999/xlink" x="0px" y="0px"
	 viewBox="0 0 50 50" style="enable-background:new 0 0 50 50;" xml:space="preserve">
<style type="text/css">
	.st0{fill:none;stroke:#CD0511;stroke-linecap:round;stroke-linejoin:round;stroke-miterlimit:10;}
	.st1{fill:#CD0511;}
</style>
<path class="st0" d="M41.6,29.2v4c0,0.9-0.7,1.6-1.6,1.6H9.6c-0.9,0-1.6-0.7-1.6-1.6V16.7c0-0.9,0.7-1.6,1.6-1.6H40
	c0.9,0,1.6,0.7,1.6,1.6v4"/>
<g>
	<line class="st0" x1="20.1" y1="22.3" x2="26.9" y2="22.3"/>
	<line class="st0" x1="20.1" y1="25" x2="26.9" y2="25"/>
	<line class="st0" x1="20.1" y1="27.7" x2="26.9" y2="27.7"/>
</g>
<path class="st0" d="M42,29h-9c-1,0-1.9-0.8-1.9-1.9v-4.4c0-1,0.8-1.9,1.9-1.9h9c1,0,1.9,0.8,1.9,1.9v4.4C43.8,28.2,43,29,42,29z"/>
<g>
	<path class="st1" d="M35.4,24.1c0.5,0,0.9,0.4,0.9,0.9s-0.4,0.9-0.9,0.9s-0.9-0.4-0.9-0.9S35,24.1,35.4,24.1 M35.4,23
		c-1.1,0-2,0.9-2,2s0.9,2,2,2s2-0.9,2-2S36.6,23,35.4,23L35.4,23z"/>
</g>
<g>
	<line class="st0" x1="14.7" y1="29.6" x2="14.7" y2="30.7"/>
	<path class="st0" d="M16.8,21.8c-0.7-2.2-4.3-1.9-4.4,0.8c0,2.7,4.5,1.9,4.5,4.8c0,3-4.5,2.8-4.5,0.4"/>
	<line class="st0" x1="14.7" y1="20.3" x2="14.7" y2="19.1"/>
</g>
<path class="st0" d="M28.1,9.5l-3.6-4.3c-0.7-0.8-1.8-0.9-2.6-0.2L10.1,15l23.1-7c0.9-0.3,1.8,0.2,2.1,1.1l1.8,5.6"/>
</svg>
