<?xml version="1.0" encoding="utf-8"?>
<!-- Generator: Adobe Illustrator 27.2.0, SVG Export Plug-In . SVG Version: 6.00 Build 0)  -->
<svg version="1.1" id="Layer_1" xmlns="http://www.w3.org/2000/svg" xmlns:xlink="http://www.w3.org/1999/xlink" x="0px" y="0px"
	 viewBox="0 0 180 180" style="enable-background:new 0 0 180 180;" xml:space="preserve">
<style type="text/css">
	.st0{fill:none;stroke:#7E7E7E;stroke-miterlimit:10;}
	.st1{fill:#7E7E7E;}
</style>
<g>
	<g>
		<ellipse transform="matrix(0.9239 -0.3827 0.3827 0.9239 -27.5907 41.2924)" class="st0" cx="90" cy="90" rx="40.1" ry="40.1"/>
		<polyline class="st0" points="101.4,128.4 96.3,125.8 94.2,121.6 94.2,119.5 92.1,115.3 92.1,113.2 87.9,111.1 81.6,111.1 
			77.4,109 75.2,102.6 75.2,98.4 75.2,96.3 79.5,92.1 83.7,90 87.9,90 90,90 92.1,92.1 94.2,94.2 96.3,94.2 96.3,94.2 98.4,92.1 
			102.6,92.1 104.8,92.1 104.8,94.2 109,102.6 115.3,104.8 115.3,106.9 111.1,111.1 109,113.2 109,117.4 104.8,121.6 104.8,127 		
			"/>
		<line class="st0" x1="115.3" y1="121.1" x2="115.3" y2="115.3"/>
		<polyline class="st0" points="130.1,87.9 127.9,90 123.7,85.8 121.6,83.7 119.5,83.7 119.5,85.8 117.4,87.9 117.4,90 119.5,92.1 
			119.5,94.2 117.4,98.4 113.2,98.4 111.1,94.2 109,83.7 106.9,83.7 104.8,85.8 102.6,85.8 100.5,81.6 94.2,81.6 92.1,83.7 90,83.7 
			87.9,83.7 85.8,83.7 83.7,83.7 83.7,79.5 85.8,77.4 87.9,77.4 90,75.2 92.1,75.2 94.2,75.2 96.3,73.1 98.4,71 98.4,68.9 		"/>
		<polyline class="st0" points="92.1,75.2 90,71 92.1,64.7 98.4,62.6 102.6,62.6 102.6,60.5 100.5,56.3 102.6,52.1 		"/>
		<polyline class="st0" points="81.6,71 83.7,68.9 85.8,62.6 		"/>
		<polyline class="st0" points="77.4,52.1 77.4,52.1 79.5,52.1 81.6,54.2 81.6,56.3 77.4,58.4 75.2,58.4 73.1,58.4 71,60.5 
			68.9,62.6 68.9,62.6 68.9,64.7 66.8,66.8 62.6,68.9 58.4,71 54.7,71 		"/>
		<polyline class="st0" points="49.9,85.8 54.2,92.1 56.3,94.2 56.3,100.5 60.5,106.9 64.7,109 64.7,111.1 62.6,115.3 62.6,119.2 		
			"/>
	</g>
	<g>
		<g>
			<path class="st1" d="M90,163.5L90,163.5c-2.3,0-4.6-0.3-6.8-0.8l0.2-1c2.2,0.5,4.4,0.7,6.6,0.7L90,163.5z M96.9,162.7l-0.2-1
				c2.1-0.5,4.3-1.2,6.3-2.1l0.4,0.9C101.3,161.4,99.1,162.2,96.9,162.7z M76.7,160.5c-2-0.9-4-2.1-6-3.4l0.6-0.8
				c1.9,1.3,3.8,2.4,5.8,3.3L76.7,160.5z M109.4,157l-0.6-0.8c1.8-1.2,3.5-2.7,5.2-4.3l0.7,0.7C113,154.3,111.2,155.8,109.4,157z
				 M65.4,152.8c-1.6-1.5-3.2-3.2-4.7-5l0.8-0.6c1.5,1.8,3,3.4,4.6,4.9L65.4,152.8z M119.3,147.7l-0.8-0.6c1.4-1.7,2.7-3.5,4-5.5
				l0.8,0.5C122.1,144.1,120.7,145.9,119.3,147.7z M56.7,142.2c-1.2-1.9-2.4-3.9-3.4-5.9l0.9-0.5c1.1,2,2.2,4,3.4,5.8L56.7,142.2z
				 M126.8,136.2l-0.9-0.5c1-1.9,2-4,2.9-6.1l0.9,0.4C128.8,132.1,127.8,134.2,126.8,136.2z M50.4,130.1c-0.9-2.1-1.7-4.2-2.4-6.4
				l0.9-0.3c0.7,2.2,1.5,4.3,2.4,6.3L50.4,130.1z M132,123.6l-0.9-0.3c0.7-2.1,1.3-4.3,1.9-6.5l1,0.2
				C133.4,119.3,132.7,121.5,132,123.6z M46.1,117.1c-0.6-2.2-1.1-4.4-1.5-6.7l1-0.2c0.4,2.2,0.9,4.4,1.5,6.6L46.1,117.1z
				 M135.4,110.4l-1-0.2c0.4-2.2,0.7-4.4,1-6.7l1,0.1C136.2,105.9,135.8,108.2,135.4,110.4z M43.6,103.7c-0.3-2.2-0.5-4.5-0.6-6.8
				l1-0.1c0.1,2.3,0.3,4.5,0.6,6.7L43.6,103.7z M137.1,96.8l-1-0.1c0.1-2.2,0.2-4.5,0.2-6.8l0-0.2h1l0,0.2
				C137.3,92.3,137.2,94.6,137.1,96.8z M42.7,90.1L42.7,90.1c0-2.3,0.1-4.6,0.2-6.8l1,0.1c-0.1,2.2-0.2,4.4-0.2,6.7L42.7,90.1z
				 M136,83.1c-0.1-2.3-0.3-4.5-0.6-6.7l1-0.1c0.3,2.2,0.5,4.5,0.6,6.8L136,83.1z M44.5,76.6l-1-0.1c0.3-2.3,0.6-4.5,1-6.8l1,0.2
				C45.1,72.1,44.8,74.3,44.5,76.6z M134.4,69.6c-0.4-2.2-0.9-4.4-1.5-6.6l1-0.2c0.6,2.2,1.1,4.4,1.5,6.7L134.4,69.6z M47,63.3
				L46,63c0.6-2.2,1.2-4.4,1.9-6.6l0.9,0.3C48.2,58.9,47.5,61.1,47,63.3z M131,56.6c-0.7-2.2-1.5-4.3-2.4-6.3l0.9-0.4
				c0.9,2.1,1.7,4.2,2.4,6.4L131,56.6z M51.2,50.5l-0.9-0.4c0.9-2.1,1.9-4.2,2.9-6.2l0.9,0.5C53.1,46.3,52.1,48.4,51.2,50.5z
				 M125.8,44.1c-1.1-2-2.2-4-3.4-5.8l0.8-0.5c1.2,1.9,2.4,3.9,3.5,5.9L125.8,44.1z M57.5,38.5L56.6,38c1.3-2,2.6-3.8,4-5.5l0.8,0.6
				C60,34.8,58.7,36.6,57.5,38.5z M118.4,32.8c-1.5-1.8-3-3.4-4.6-4.9l0.7-0.7c1.6,1.5,3.2,3.2,4.7,5L118.4,32.8z M66,28.1l-0.7-0.7
				c1.7-1.6,3.5-3.1,5.3-4.4l0.6,0.8C69.4,25.1,67.6,26.5,66,28.1z M108.6,23.7c-1.9-1.3-3.8-2.4-5.8-3.3l0.4-0.9c2,0.9,4,2.1,6,3.4
				L108.6,23.7z M76.9,20.5l-0.4-0.9c2.1-1,4.3-1.7,6.5-2.2l0.2,1C81.1,18.8,79,19.5,76.9,20.5z M96.5,18.3
				c-2.1-0.5-4.3-0.7-6.5-0.7l-0.1,0v-1l0.1,0c2.3,0,4.5,0.2,6.7,0.7L96.5,18.3z"/>
		</g>
		<g>
			<path class="st1" d="M63.1,151.8c-2.4-0.1-4.6-0.3-6.8-0.7l0.2-1c2.1,0.4,4.4,0.6,6.7,0.7L63.1,151.8z M70,151.5l-0.1-1
				c2.2-0.2,4.4-0.6,6.7-1.1l0.2,1C74.4,150.9,72.2,151.3,70,151.5z M49.6,149.3c-2.2-0.8-4.3-1.8-6.2-3l0.5-0.8
				c1.8,1.2,3.9,2.2,6,3L49.6,149.3z M83.3,148.7l-0.3-1c2.1-0.7,4.2-1.4,6.3-2.3l0.4,0.9C87.6,147.2,85.5,148,83.3,148.7z
				 M96,143.5l-0.4-0.9c2-1,4-2.1,5.9-3.2l0.5,0.9C100,141.4,98,142.5,96,143.5z M38.1,141.9l0.4-0.3L38.1,141.9
				c-1.6-1.6-3.1-3.4-4.3-5.4l0.8-0.5c1.2,1.9,2.6,3.6,4.2,5.2L38.1,141.9z M107.7,136.5l-0.6-0.8c1.8-1.3,3.7-2.6,5.4-4l0.6,0.8
				C111.4,133.9,109.6,135.2,107.7,136.5z M30.7,130.4c-0.8-2.1-1.4-4.3-1.8-6.6l1-0.2c0.4,2.3,1,4.4,1.8,6.5L30.7,130.4z
				 M118.5,128.1l-0.7-0.7c1.7-1.5,3.3-3.1,4.9-4.6l0.8,0.6l-0.1,0.1C121.8,125,120.1,126.6,118.5,128.1z M128.2,118.4l-0.7-0.7
				c1.5-1.7,3-3.4,4.3-5.2l0.8,0.6C131.1,114.9,129.7,116.7,128.2,118.4z M28.2,116.9c0-0.4,0-0.9,0-1.3c0-1.8,0.1-3.7,0.3-5.6
				l1,0.1c-0.2,1.8-0.3,3.7-0.3,5.5c0,0.4,0,0.8,0,1.3L28.2,116.9z M136.6,107.6l-0.8-0.6c1.3-1.9,2.5-3.8,3.6-5.7l0.9,0.5
				C139.1,103.8,137.9,105.7,136.6,107.6z M30.6,103.5l-1-0.2c0.5-2.2,1.1-4.4,1.7-6.6l1,0.3C31.6,99.2,31,101.4,30.6,103.5z
				 M143.5,95.9l-0.9-0.4c1-2,2-4.1,2.8-6.2l0.9,0.4C145.5,91.7,144.6,93.8,143.5,95.9z M34.6,90.7l-0.9-0.4
				c0.8-2.1,1.8-4.2,2.8-6.2l0.9,0.4C36.4,86.6,35.4,88.6,34.6,90.7z M148.7,83.2l-1-0.3c0.7-2.2,1.3-4.4,1.7-6.5l1,0.2
				C150,78.8,149.4,81,148.7,83.2z M40.6,78.6l-0.9-0.5c1.1-1.9,2.4-3.9,3.7-5.8l0.8,0.6C43,74.8,41.8,76.7,40.6,78.6z M151.5,69.9
				l-1-0.1c0.2-1.8,0.3-3.7,0.3-5.4c0-0.4,0-0.9,0-1.3l1,0c0,0.4,0,0.9,0,1.3C151.8,66.1,151.7,68,151.5,69.9z M48.3,67.4l-0.8-0.6
				c1.4-1.8,2.9-3.5,4.4-5.2l0.7,0.7C51.1,63.9,49.7,65.7,48.3,67.4z M57.3,57.3L56.9,57l-0.3-0.4c1.6-1.6,3.3-3.2,4.9-4.7l0.7,0.7
				C60.5,54.2,58.9,55.7,57.3,57.3z M150.1,56.4c-0.4-2.3-1-4.4-1.8-6.5l0.9-0.4c0.8,2.1,1.4,4.3,1.8,6.6L150.1,56.4z M67.4,48.3
				l-0.6-0.8c1.8-1.4,3.6-2.8,5.5-4l0.6,0.8C71,45.6,69.1,46.9,67.4,48.3z M145.4,43.9c-1.2-1.9-2.6-3.6-4.1-5.2l0.4-0.5l0.3-0.2
				c1.6,1.6,3,3.4,4.3,5.3L145.4,43.9z M78.5,40.7L78,39.8c2-1.2,4-2.3,6-3.3l0.4,0.9C82.5,38.4,80.5,39.5,78.5,40.7z M90.6,34.6
				l-0.4-0.9c2.1-0.9,4.3-1.7,6.4-2.3l0.3,1C94.8,33,92.7,33.8,90.6,34.6z M136,34.6c-1.8-1.2-3.9-2.2-6-2.9l0.3-0.9
				c2.2,0.8,4.3,1.8,6.2,3L136,34.6z M103.4,30.6l-0.2-1c2.3-0.5,4.6-0.9,6.8-1.1l0.1,1C107.9,29.7,105.7,30.1,103.4,30.6z
				 M123.5,29.9c-2.1-0.4-4.4-0.6-6.7-0.7l0-1c2.4,0.1,4.6,0.3,6.8,0.7L123.5,29.9z"/>
		</g>
		<g>
			<path class="st1" d="M115.7,151.8c-1.9,0-3.7-0.1-5.6-0.3l0.1-1c1.9,0.2,3.7,0.3,5.5,0.3c0.4,0,0.8,0,1.2,0l0,1
				C116.5,151.8,116.1,151.8,115.7,151.8z M123.8,151.1l-0.2-1c2.3-0.4,4.4-1,6.5-1.8l0.3,0.9C128.3,150.1,126.1,150.7,123.8,151.1z
				 M103.3,150.4c-2.2-0.5-4.4-1.1-6.6-1.8l0.3-1c2.2,0.7,4.4,1.3,6.5,1.7L103.3,150.4z M90.3,146.3c-2.1-0.8-4.2-1.8-6.2-2.8
				l0.4-0.9c2,1,4.1,2,6.1,2.8L90.3,146.3z M136.6,146.2l-0.5-0.8c1.9-1.2,3.6-2.6,5.2-4.2l0.7,0.7
				C140.3,143.6,138.5,145,136.6,146.2z M78.1,140.2c-1.9-1.2-3.9-2.4-5.8-3.7l0.6-0.8c1.9,1.3,3.8,2.5,5.7,3.6L78.1,140.2z
				 M146.3,136.5l-0.8-0.5c1.2-1.8,2.2-3.9,3-6l0.9,0.3C148.5,132.6,147.5,134.6,146.3,136.5z M66.8,132.5c-1.8-1.4-3.5-2.9-5.2-4.4
				l0.7-0.7c1.7,1.5,3.4,3,5.2,4.3L66.8,132.5z M151.1,123.7l-1-0.2c0.4-2.1,0.6-4.4,0.7-6.7l1,0
				C151.7,119.2,151.5,121.5,151.1,123.7z M56.6,123.4L56.6,123.4c-1.6-1.6-3.2-3.3-4.7-5l0.7-0.7c1.5,1.7,3,3.3,4.6,4.9L56.6,123.4
				z M47.6,113.2c-1.4-1.8-2.8-3.6-4-5.5l0.8-0.6c1.3,1.8,2.6,3.7,4,5.4L47.6,113.2z M150.5,110.1c-0.2-2.2-0.6-4.4-1.1-6.7l1-0.2
				c0.5,2.3,0.9,4.6,1.1,6.8L150.5,110.1z M39.8,102c-1.2-2-2.3-4-3.3-6l0.9-0.4c1,2,2.1,4,3.3,5.9L39.8,102z M147.7,97
				c-0.7-2.1-1.4-4.2-2.3-6.3l0.9-0.4c0.9,2.1,1.7,4.3,2.3,6.4L147.7,97z M33.7,89.8c-0.9-2.1-1.7-4.3-2.3-6.4l1-0.3
				c0.7,2.1,1.4,4.2,2.3,6.3L33.7,89.8z M142.6,84.5c-1-2-2.1-4-3.2-5.9l0.9-0.5c1.2,2,2.3,4,3.3,6L142.6,84.5z M29.6,76.8
				c-0.5-2.3-0.9-4.5-1.1-6.8l1-0.1c0.2,2.2,0.6,4.4,1.1,6.7L29.6,76.8z M135.7,72.9c-1.3-1.8-2.6-3.7-4-5.4l0.8-0.6
				c1.4,1.8,2.8,3.6,4,5.5L135.7,72.9z M29.2,63.2l-1,0c0.1-2.3,0.3-4.6,0.7-6.8l1,0.2C29.5,58.6,29.3,60.9,29.2,63.2z M127.4,62.2
				c-1.5-1.7-3-3.3-4.6-4.9l0.6-0.8l0.1,0.1c1.6,1.6,3.2,3.3,4.7,5L127.4,62.2z M117.7,52.6c-1.7-1.5-3.4-3-5.2-4.3l0.6-0.8
				c1.8,1.4,3.5,2.9,5.2,4.4L117.7,52.6z M31.6,50l-0.9-0.3c0.8-2.2,1.8-4.3,3-6.2l0.8,0.5C33.4,45.9,32.4,47.9,31.6,50z
				 M107.1,44.3c-1.9-1.3-3.8-2.5-5.7-3.6l0.5-0.9c1.9,1.1,3.9,2.4,5.8,3.7L107.1,44.3z M38.8,38.8L38,38.1l0.1-0.1
				c1.6-1.6,3.4-3,5.3-4.3l0.5,0.8C42.1,35.8,40.3,37.2,38.8,38.8z M95.4,37.4c-2-1-4.1-2-6.1-2.8l0.4-0.9c2.1,0.8,4.2,1.8,6.2,2.8
				L95.4,37.4z M82.9,32.3c-2.2-0.7-4.4-1.3-6.5-1.7l0.2-1c2.2,0.5,4.4,1.1,6.6,1.7L82.9,32.3z M49.9,31.7l-0.4-0.9
				c2.1-0.8,4.3-1.4,6.6-1.8l0.2,1C54.1,30.3,51.9,30.9,49.9,31.7z M69.8,29.5c-2.3-0.2-4.5-0.3-6.7-0.3l0-1c2.2-0.1,4.5,0,6.8,0.3
				L69.8,29.5z"/>
		</g>
	</g>
</g>
</svg>
