<?xml version="1.0" encoding="utf-8"?>
<!-- Generator: Adobe Illustrator 27.2.0, SVG Export Plug-In . SVG Version: 6.00 Build 0)  -->
<svg version="1.1" id="Layer_1" xmlns="http://www.w3.org/2000/svg" xmlns:xlink="http://www.w3.org/1999/xlink" x="0px" y="0px"
	 viewBox="0 0 50 50" style="enable-background:new 0 0 50 50;" xml:space="preserve">
<style type="text/css">
	.st0{fill:none;stroke:#CD0511;stroke-linejoin:round;stroke-miterlimit:10;}
</style>
<g>
	<line class="st0" x1="3.8" y1="2.2" x2="3.8" y2="47.8"/>
	<line class="st0" x1="47.8" y1="46.2" x2="2.2" y2="46.2"/>
	<polyline class="st0" points="8.5,46.2 8.5,24.5 6.9,24.5 10.8,19.7 14.8,24.5 13.3,24.5 13.3,46.2 	"/>
	<polyline class="st0" points="27.3,46.2 27.3,24.5 25.7,24.5 29.7,19.7 33.6,24.5 32.2,24.5 32.2,46.2 	"/>
	<polyline class="st0" points="17.8,46.2 17.8,31.4 16.2,31.4 20.1,26.5 24,31.4 22.6,31.4 22.6,46.2 	"/>
	<polyline class="st0" points="36.8,46.2 36.8,35.4 35.2,35.4 39.1,30.5 43,35.4 41.6,35.4 41.6,46.2 	"/>
</g>
</svg>
