<?xml version="1.0" encoding="utf-8"?>
<!-- Generator: Adobe Illustrator 27.2.0, SVG Export Plug-In . SVG Version: 6.00 Build 0)  -->
<svg version="1.1" id="Layer_1" xmlns="http://www.w3.org/2000/svg" xmlns:xlink="http://www.w3.org/1999/xlink" x="0px" y="0px"
	 viewBox="0 0 186 186" style="enable-background:new 0 0 186 186;" xml:space="preserve">
<style type="text/css">
	.st0{clip-path:url(#SVGID_00000183949676520890554860000010667492056022109076_);}
	.st1{fill:#E58613;}
	.st2{fill:#FFFFFF;}
	.st3{fill:#678925;}
	.st4{fill:#2F6FA8;}
	.st5{fill:#C1A840;}
	.st6{fill:#13121B;}
</style>
<g>
	<g>
		<g>
			<g>
				<defs>
					<rect id="SVGID_1_" x="1" y="1" width="183" height="183"/>
				</defs>
				<clipPath id="SVGID_00000036932754327473413210000014561162137583384233_">
					<use xlink:href="#SVGID_1_"  style="overflow:visible;"/>
				</clipPath>
				<g style="clip-path:url(#SVGID_00000036932754327473413210000014561162137583384233_);">
					<path class="st1" d="M91.8,149.3c24.4,0,44.1-19.8,44.1-44.1s-19.8-44.1-44.1-44.1s-44.1,19.8-44.1,44.1S67.4,149.3,91.8,149.3
						z"/>
					<path class="st2" d="M91.8,140.3c19.4,0,35.2-15.7,35.2-35.2c0-19.4-15.7-35.2-35.2-35.2c-19.4,0-35.2,15.7-35.2,35.2
						C56.6,124.6,72.4,140.3,91.8,140.3z"/>
					<path class="st3" d="M92,46.9c9.8,0,17.8-9.9,17.8-22c0-12.2-8-22-17.8-22s-17.8,9.9-17.8,22S82.2,46.9,92,46.9z"/>
					<path class="st3" d="M120.2,64.9c1.4-3.6,2.4-7.4,3.1-11.2c2.8,1.4,4.9,12.2,4.6,17.9c8.1,8.6,12.8,19.7,13.4,31.5
						c5.8-8.9,22.9-70.5-28.6-85.7c2.8,30.2-17.8,33.6-20.2,33.7s-24.7-2.8-21.8-33.2c-33.8,7.4-36.6,38.5-35.6,49.9
						c7.3-4.2,15.5-6.7,23.9-7.3c0.6-2.5,1.7-4.9,3.4-6.8c0,2.7,0.2,4.2,0.2,6.4c1.6-0.2,6-0.7,11.7-0.9c7.6-2.9,15.7-3.9,23.7-2.9
						C106,57.4,113.6,60.4,120.2,64.9L120.2,64.9z"/>
					<path class="st4" d="M180.7,155.6c4.9-8.5,0.3-20.3-10.2-26.4s-23-4.1-28,4.4c-4.9,8.5-0.3,20.3,10.2,26.4
						S175.8,164.1,180.7,155.6z"/>
					<path class="st4" d="M138.5,131.8c1.2-2.2,14.8-20,39.6-2.2c10.7-33-14.8-50.9-25.2-55.8c0,8.5-1.9,16.8-5.5,24.4
						c1.9,1.8,3.3,3.9,4.2,6.4l-5.7-3c-0.6,1.5-2.3,5.3-4.9,10.2c-1,8.1-4.1,15.9-8.8,22.6c-4.8,6.7-11.1,12.1-18.5,15.7
						c2.3,2.6,4.8,5,7.4,7.3c-2.3,1.5-10.9-1.2-16.2-4c-11.5,3.1-23.6,2-34.3-3.1c8.6,12.6,50.4,51,87.1,16.3
						C130,153.5,137.4,133.9,138.5,131.8z"/>
					<path class="st5" d="M41,133.4c-4.9-8.5-17.4-10.4-28-4.4c-10.5,6.1-14.9,17.9-10,26.4s17.4,10.5,27.9,4.4
						C41.5,153.7,46,141.9,41,133.4z"/>
					<path class="st5" d="M42.3,105.5c0-1.9,0-3.6,0.3-5.6c-3.9,0.6-7.7,1.7-11.4,3.1c-0.2-3.2,8.7-10.9,13.7-13.2
						c2.7-8.1,7.5-15.3,13.8-21c2.2-2.3,4.6-4.3,7.3-6.1C59.2,61-7.8,76.2,5.4,130c24.7-17.5,38-1.5,39.3,0.6
						c1.2,2.1,10,22.9-17.8,35.7c23.2,25.4,51.6,12.4,61,5.8c-7.3-4.2-13.6-10-18.4-17c-2.5,0.7-5,0.9-7.6,0.5l5.4-3.6
						c-0.8-1.1-2.6-3.6-4.8-6.9c-6.2-4.6-11.3-10.5-14.7-17.4C44.2,120.8,42.4,113.2,42.3,105.5z"/>
				</g>
			</g>
		</g>
	</g>
</g>
<path class="st6" d="M93.6,97.9c1.8,0,3.6,0.3,5.3,0.9c1.6,0.6,3,1.4,4.3,2.5c1.2,1.2,2.2,2.6,2.8,4.2c0.6,1.8,0.9,3.7,0.8,5.6
	c0,2.2-0.3,4.4-1.1,6.4c-0.7,1.8-1.8,3.5-3.3,4.8c-1.6,1.4-3.4,2.4-5.4,3.1c-2.4,0.7-4.9,1.1-7.3,1c-1.1,0.1-2.2,0.1-3.3,0
	s-2.1-0.2-3.1-0.4s-1.9-0.4-2.8-0.7c-0.8-0.3-1.6-0.6-2.4-1v-8.1c0.8,0.4,1.6,0.8,2.5,1.1c0.9,0.4,1.9,0.6,2.9,0.9
	c1,0.3,2,0.5,3,0.6c0.9,0.1,1.9,0.2,2.9,0.2c2.2,0.2,4.3-0.4,6.1-1.7c0.8-0.7,1.3-1.5,1.7-2.4s0.5-1.9,0.4-2.9
	c0.1-0.9-0.1-1.9-0.5-2.7c-0.4-0.9-0.9-1.6-1.6-2.2c-1.9-1.3-4.1-1.9-6.4-1.7h-1.7l-1.8,0.3L84,106l-1.4,0.4l-3.7-2l1.7-22.5h23.2
	v7.9H88.7L88,98.5l2.2-0.4C91.3,97.9,92.5,97.8,93.6,97.9z"/>
</svg>
