<?xml version="1.0" encoding="utf-8"?>
<!-- Generator: Adobe Illustrator 27.2.0, SVG Export Plug-In . SVG Version: 6.00 Build 0)  -->
<svg version="1.1" id="Layer_1" xmlns="http://www.w3.org/2000/svg" xmlns:xlink="http://www.w3.org/1999/xlink" x="0px" y="0px"
	 viewBox="0 0 180 180" style="enable-background:new 0 0 180 180;" xml:space="preserve">
<style type="text/css">
	.st0{fill:none;stroke:#7E7E7E;stroke-miterlimit:10;}
	.st1{fill:#7E7E7E;}
</style>
<g>
	<g>
		<g>
			<g>
				<g>
					<path class="st0" d="M90.2,120.5l11.4,32.5l10.9-17.5l19.9,5.9l-11.2-29"/>
					<path class="st0" d="M58.9,112.4l-11.1,29l19.9-5.9L78.5,153l11.4-32.5"/>
					<path class="st0" d="M136.7,75.4l-0.2-0.1c-2.6-2.2-3-6-0.9-8.7l0.1-0.1c2.8-3.5,1.1-8.7-3.3-9.9l-0.2,0
						c-3.3-0.9-5.3-4.3-4.4-7.6l0-0.1c1.1-4.3-2.6-8.4-7.1-7.7h-0.1c-3.4,0.5-6.6-1.8-7.2-5.1v-0.1c-0.8-4.4-5.8-6.7-9.7-4.2l-0.1,0
						c-2.9,1.8-6.8,1-8.7-1.8c-2.5-3.8-8.1-3.8-10.6,0l0,0.1c-1.9,2.9-5.8,3.7-8.7,1.8c-3.8-2.4-8.9-0.2-9.6,4.2l0,0.1
						c-0.6,3.4-3.8,5.7-7.2,5.1h0c-4.5-0.7-8.2,3.4-7.1,7.7l0,0.2c0.9,3.3-1.1,6.7-4.4,7.6l-0.1,0c-4.3,1.2-6.1,6.4-3.3,9.9l0.1,0.2
						c2.1,2.7,1.7,6.5-0.9,8.7l-0.1,0.1c-3.5,2.9-2.9,8.3,1.1,10.3l0.2,0.1c3,1.6,4.3,5.3,2.7,8.3l-0.1,0.1c-2,4,0.8,8.7,5.3,9h0.1
						c3.4,0.2,6.1,3.1,5.9,6.5v0.1c-0.2,4.5,4.3,7.7,8.5,6.1l0.1,0c3.2-1.2,6.8,0.4,8.1,3.6v0c1.7,4.2,7.1,5.3,10.3,2.2l0,0
						c2.5-2.4,6.4-2.4,8.9,0c3.2,3.2,8.7,2,10.3-2.2l0-0.1c1.3-3.2,4.9-4.8,8.1-3.6c4.2,1.6,8.7-1.6,8.5-6.1v-0.2
						c-0.2-3.4,2.5-6.3,5.9-6.5h0.1c4.5-0.3,7.3-5,5.3-9l-0.1-0.2c-1.5-3-0.3-6.7,2.7-8.3l0.1-0.1C139.5,83.7,140.1,78.2,136.7,75.4
						L136.7,75.4z M89.9,112.9c-21,0-38.1-16.9-38.1-37.7c0-20.8,17.1-37.7,38.1-37.7S128,54.4,128,75.2
						C128,96.1,111,112.9,89.9,112.9L89.9,112.9z"/>
				</g>
			</g>
		</g>
	</g>
	<polygon class="st0" points="90,54.3 96.1,68 111,69.5 99.8,79.5 103,94.2 90,86.7 77,94.2 80.2,79.5 69,69.5 83.9,68 	"/>
</g>
</svg>
