<?xml version="1.0" encoding="utf-8"?>
<!-- Generator: Adobe Illustrator 27.4.1, SVG Export Plug-In . SVG Version: 6.00 Build 0)  -->
<svg version="1.1" id="Layer_1" xmlns="http://www.w3.org/2000/svg" xmlns:xlink="http://www.w3.org/1999/xlink" x="0px" y="0px"
	 viewBox="0 0 20 15" style="enable-background:new 0 0 20 15;" xml:space="preserve">
<style type="text/css">
	.st0{fill:none;stroke:#CD0511;stroke-linecap:round;stroke-linejoin:round;stroke-miterlimit:10;}
</style>
<g>
	<path class="st0" d="M2.8,3.7v7.7c0,0.6,0.5,1,1,1h12.4c0.6,0,1-0.5,1-1V3.7c0-0.6-0.5-1-1-1H3.8C3.2,2.7,2.8,3.1,2.8,3.7z"/>
	<path class="st0" d="M3.1,3C4,3.8,6,5.9,7.6,7.5c0.6,0.6,1.5,1,2.4,1s1.7-0.4,2.4-1C14,5.9,15.9,4,16.8,3.1"/>
	<path class="st0" d="M12,7.8c1.7,1.4,4,3.5,4.8,4.2"/>
	<path class="st0" d="M3.1,12C4,11.3,6.3,9.3,8,7.8"/>
</g>
</svg>
