<?xml version="1.0" encoding="utf-8"?>
<!-- Generator: Adobe Illustrator 27.4.0, SVG Export Plug-In . SVG Version: 6.00 Build 0)  -->
<svg version="1.1" id="Layer_1" xmlns="http://www.w3.org/2000/svg" xmlns:xlink="http://www.w3.org/1999/xlink" x="0px" y="0px"
	 viewBox="0 0 90 131" style="enable-background:new 0 0 90 131;" xml:space="preserve">
<style type="text/css">
	.st0{fill:none;stroke:#BB9B52;}
	.st1{fill:#161616;}
	.st2{fill:#898989;}
	.st3{fill:none;stroke:#BB9B52;stroke-linejoin:bevel;}
	.st4{fill:none;stroke:#BB9B52;stroke-miterlimit:10;}
	.st5{fill:#BB9B52;}
	.st6{fill:#FFFFFF;}
	.st7{fill:none;stroke:#EDC873;stroke-linejoin:bevel;stroke-miterlimit:10;}
	.st8{fill:none;stroke:#EDC873;stroke-miterlimit:10;}
</style>
<path class="st5" d="M1,0.5H0.5V1v128v0.7l0.7-0.3L45,112.3l43.8,17.2l0.7,0.3V129V1V0.5H89H1z"/>
<path class="st6" d="M9.3,72l-2.6-7h0c0,0.1,0,0.3,0,0.5c0,0.2,0,0.4,0,0.7c0,0.2,0,0.5,0,0.8v5H5.8v-7.9h1.4l2.5,6.5h0l2.5-6.5h1.3
	V72h-0.9v-5c0-0.2,0-0.5,0-0.7c0-0.2,0-0.5,0-0.7c0-0.2,0-0.4,0-0.5h0L10,72H9.3z M22.5,68.1c0,0.6-0.1,1.2-0.2,1.7
	c-0.2,0.5-0.4,0.9-0.7,1.3c-0.3,0.4-0.7,0.6-1.1,0.8c-0.4,0.2-1,0.3-1.6,0.3c-0.6,0-1.1-0.1-1.6-0.3c-0.5-0.2-0.8-0.5-1.1-0.8
	c-0.3-0.4-0.5-0.8-0.7-1.3c-0.1-0.5-0.2-1-0.2-1.7c0-0.8,0.1-1.5,0.4-2.1c0.3-0.6,0.7-1.1,1.2-1.4c0.5-0.3,1.2-0.5,2-0.5
	c0.8,0,1.4,0.2,2,0.5c0.5,0.3,0.9,0.8,1.2,1.4C22.4,66.5,22.5,67.2,22.5,68.1z M16.3,68.1c0,0.7,0.1,1.2,0.3,1.7
	c0.2,0.5,0.5,0.9,0.9,1.1c0.4,0.3,0.9,0.4,1.5,0.4c0.6,0,1.1-0.1,1.5-0.4c0.4-0.3,0.7-0.6,0.9-1.1c0.2-0.5,0.3-1.1,0.3-1.7
	c0-1-0.2-1.8-0.6-2.4c-0.4-0.6-1.1-0.9-2-0.9c-0.6,0-1.1,0.1-1.5,0.4c-0.4,0.3-0.7,0.6-0.9,1.1C16.4,66.8,16.3,67.4,16.3,68.1z
	 M28.7,69.9c0,0.5-0.1,0.9-0.3,1.2c-0.2,0.3-0.6,0.6-1,0.7c-0.4,0.2-0.9,0.3-1.5,0.3c-0.3,0-0.6,0-0.8,0c-0.3,0-0.5-0.1-0.7-0.1
	c-0.2-0.1-0.4-0.1-0.6-0.2v-0.9c0.3,0.1,0.6,0.2,1,0.3c0.4,0.1,0.8,0.1,1.2,0.1c0.4,0,0.7-0.1,1-0.2c0.3-0.1,0.5-0.3,0.6-0.5
	c0.1-0.2,0.2-0.4,0.2-0.7c0-0.3-0.1-0.5-0.2-0.7c-0.1-0.2-0.3-0.3-0.6-0.5c-0.3-0.2-0.6-0.3-1.1-0.5c-0.3-0.1-0.6-0.2-0.9-0.4
	c-0.3-0.1-0.5-0.3-0.6-0.5c-0.2-0.2-0.3-0.4-0.4-0.6c-0.1-0.2-0.1-0.5-0.1-0.8c0-0.4,0.1-0.8,0.3-1.1c0.2-0.3,0.5-0.5,0.9-0.7
	c0.4-0.2,0.8-0.2,1.3-0.2c0.4,0,0.8,0,1.2,0.1c0.4,0.1,0.7,0.2,1,0.3l-0.3,0.8C28,65.1,27.7,65,27.4,65c-0.3-0.1-0.6-0.1-1-0.1
	c-0.3,0-0.6,0.1-0.9,0.2c-0.2,0.1-0.4,0.2-0.5,0.4c-0.1,0.2-0.2,0.4-0.2,0.6c0,0.3,0.1,0.5,0.2,0.7c0.1,0.2,0.3,0.3,0.6,0.5
	c0.3,0.1,0.6,0.3,1,0.4c0.5,0.2,0.9,0.3,1.2,0.5c0.3,0.2,0.6,0.4,0.7,0.7C28.6,69.2,28.7,69.5,28.7,69.9z M32.7,72h-0.9v-7h-2.5
	v-0.8h5.8V65h-2.5V72z M41.7,72h-0.9v-7h-2.5v-0.8h5.8V65h-2.5V72z M47.4,64.1c0.6,0,1.2,0.1,1.6,0.2c0.4,0.2,0.7,0.4,0.9,0.7
	c0.2,0.3,0.3,0.7,0.3,1.2c0,0.4-0.1,0.8-0.2,1c-0.2,0.3-0.3,0.5-0.6,0.7c-0.2,0.2-0.5,0.3-0.8,0.4l2.2,3.5h-1.1l-1.9-3.3h-1.6V72
	h-0.9v-7.9H47.4z M47.4,64.9h-1.2v3h1.2c0.6,0,1.1-0.1,1.4-0.4c0.3-0.3,0.5-0.6,0.5-1.2c0-0.5-0.2-0.9-0.5-1.1
	C48.5,65,48,64.9,47.4,64.9z M58,64.1v5.1c0,0.6-0.1,1-0.3,1.5c-0.2,0.4-0.6,0.8-1,1c-0.5,0.2-1,0.4-1.7,0.4c-1,0-1.7-0.3-2.2-0.8
	c-0.5-0.5-0.8-1.2-0.8-2.1v-5.1h0.9v5.1c0,0.7,0.2,1.2,0.5,1.5c0.4,0.4,0.9,0.5,1.6,0.5c0.5,0,0.9-0.1,1.2-0.3
	c0.3-0.2,0.5-0.4,0.7-0.7c0.2-0.3,0.2-0.7,0.2-1.1v-5.1H58z M64.6,69.9c0,0.5-0.1,0.9-0.3,1.2c-0.2,0.3-0.6,0.6-1,0.7
	c-0.4,0.2-0.9,0.3-1.5,0.3c-0.3,0-0.6,0-0.8,0c-0.3,0-0.5-0.1-0.7-0.1c-0.2-0.1-0.4-0.1-0.6-0.2v-0.9c0.3,0.1,0.6,0.2,1,0.3
	c0.4,0.1,0.8,0.1,1.2,0.1c0.4,0,0.7-0.1,1-0.2c0.3-0.1,0.5-0.3,0.6-0.5c0.1-0.2,0.2-0.4,0.2-0.7c0-0.3-0.1-0.5-0.2-0.7
	c-0.1-0.2-0.3-0.3-0.6-0.5c-0.3-0.2-0.6-0.3-1.1-0.5c-0.3-0.1-0.6-0.2-0.9-0.4c-0.3-0.1-0.5-0.3-0.6-0.5c-0.2-0.2-0.3-0.4-0.4-0.6
	c-0.1-0.2-0.1-0.5-0.1-0.8c0-0.4,0.1-0.8,0.3-1.1c0.2-0.3,0.5-0.5,0.9-0.7c0.4-0.2,0.8-0.2,1.3-0.2c0.4,0,0.8,0,1.2,0.1
	c0.4,0.1,0.7,0.2,1,0.3l-0.3,0.8c-0.3-0.1-0.6-0.2-0.9-0.3c-0.3-0.1-0.6-0.1-1-0.1c-0.3,0-0.6,0.1-0.9,0.2c-0.2,0.1-0.4,0.2-0.5,0.4
	c-0.1,0.2-0.2,0.4-0.2,0.6c0,0.3,0.1,0.5,0.2,0.7c0.1,0.2,0.3,0.3,0.6,0.5c0.3,0.1,0.6,0.3,1,0.4c0.5,0.2,0.9,0.3,1.2,0.5
	c0.3,0.2,0.6,0.4,0.7,0.7C64.5,69.2,64.6,69.5,64.6,69.9z M68.6,72h-0.9v-7h-2.5v-0.8H71V65h-2.5V72z M76.6,72h-4.4v-7.9h4.4V65
	h-3.5v2.5h3.3v0.8h-3.3v2.9h3.5V72z M84.6,68c0,0.9-0.2,1.6-0.5,2.2c-0.3,0.6-0.8,1-1.4,1.3c-0.6,0.3-1.3,0.4-2.2,0.4h-2.1v-7.9h2.4
	c0.8,0,1.5,0.1,2.1,0.4c0.6,0.3,1,0.7,1.3,1.3C84.4,66.5,84.6,67.2,84.6,68z M83.6,68c0-0.7-0.1-1.3-0.4-1.7c-0.2-0.5-0.6-0.8-1-1
	c-0.5-0.2-1-0.3-1.7-0.3h-1.3v6.3h1.1c1.1,0,1.9-0.3,2.4-0.8C83.3,69.9,83.6,69.1,83.6,68z M8,76.1h2.2c1,0,1.7,0.1,2.2,0.4
	c0.5,0.3,0.7,0.8,0.7,1.5c0,0.3-0.1,0.6-0.2,0.8c-0.1,0.2-0.3,0.4-0.5,0.6c-0.2,0.2-0.5,0.3-0.8,0.3v0.1c0.3,0.1,0.6,0.2,0.9,0.3
	c0.3,0.1,0.5,0.3,0.6,0.6c0.2,0.3,0.2,0.6,0.2,1c0,0.5-0.1,0.9-0.3,1.2c-0.2,0.3-0.5,0.6-0.9,0.8c-0.4,0.2-0.9,0.3-1.5,0.3H8V76.1z
	 M8.9,79.5h1.5c0.7,0,1.2-0.1,1.4-0.3c0.3-0.2,0.4-0.6,0.4-1c0-0.4-0.2-0.8-0.5-1c-0.3-0.2-0.8-0.3-1.5-0.3H8.9V79.5z M8.9,80.3v2.9
	h1.6c0.7,0,1.2-0.1,1.5-0.4c0.3-0.3,0.4-0.6,0.4-1.1c0-0.3-0.1-0.6-0.2-0.8c-0.1-0.2-0.3-0.4-0.6-0.5c-0.3-0.1-0.7-0.2-1.2-0.2H8.9z
	 M17.2,76.1c0.6,0,1.2,0.1,1.6,0.2c0.4,0.2,0.7,0.4,0.9,0.7c0.2,0.3,0.3,0.7,0.3,1.2c0,0.4-0.1,0.8-0.2,1c-0.2,0.3-0.3,0.5-0.6,0.7
	c-0.2,0.2-0.5,0.3-0.8,0.4l2.2,3.5h-1.1l-1.9-3.3H16V84h-0.9v-7.9H17.2z M17.2,76.9H16v3h1.2c0.6,0,1.1-0.1,1.4-0.4
	c0.3-0.3,0.5-0.6,0.5-1.2c0-0.5-0.2-0.9-0.5-1.1C18.3,77,17.8,76.9,17.2,76.9z M28.7,80.1c0,0.6-0.1,1.2-0.2,1.7
	c-0.2,0.5-0.4,0.9-0.7,1.3c-0.3,0.4-0.7,0.6-1.1,0.8c-0.4,0.2-1,0.3-1.6,0.3c-0.6,0-1.1-0.1-1.6-0.3c-0.5-0.2-0.8-0.5-1.1-0.8
	c-0.3-0.4-0.5-0.8-0.7-1.3c-0.1-0.5-0.2-1-0.2-1.7c0-0.8,0.1-1.5,0.4-2.1c0.3-0.6,0.7-1.1,1.2-1.4c0.5-0.3,1.2-0.5,2-0.5
	c0.8,0,1.4,0.2,2,0.5c0.5,0.3,0.9,0.8,1.2,1.4C28.5,78.5,28.7,79.2,28.7,80.1z M22.4,80.1c0,0.7,0.1,1.2,0.3,1.7
	c0.2,0.5,0.5,0.9,0.9,1.1c0.4,0.3,0.9,0.4,1.5,0.4c0.6,0,1.1-0.1,1.5-0.4c0.4-0.3,0.7-0.6,0.9-1.1c0.2-0.5,0.3-1.1,0.3-1.7
	c0-1-0.2-1.8-0.6-2.4c-0.4-0.6-1.1-0.9-2-0.9c-0.6,0-1.1,0.1-1.5,0.4c-0.4,0.3-0.7,0.6-0.9,1.1C22.5,78.8,22.4,79.4,22.4,80.1z
	 M36.1,84H35l-2.8-3.8l-0.8,0.8V84h-0.9v-7.9h0.9v3.9c0.2-0.2,0.4-0.5,0.6-0.7c0.2-0.2,0.4-0.5,0.6-0.7l2.3-2.5H36l-3.1,3.4L36.1,84
	z M41.5,84h-4.4v-7.9h4.4V77h-3.5v2.5h3.3v0.8h-3.3v2.9h3.5V84z M45.4,76.1c0.6,0,1.2,0.1,1.6,0.2c0.4,0.2,0.7,0.4,0.9,0.7
	c0.2,0.3,0.3,0.7,0.3,1.2c0,0.4-0.1,0.8-0.2,1c-0.2,0.3-0.3,0.5-0.6,0.7c-0.2,0.2-0.5,0.3-0.8,0.4l2.2,3.5h-1.1l-1.9-3.3h-1.6V84
	h-0.9v-7.9H45.4z M45.3,76.9h-1.2v3h1.2c0.6,0,1.1-0.1,1.4-0.4c0.3-0.3,0.5-0.6,0.5-1.2c0-0.5-0.2-0.9-0.5-1.1
	C46.5,77,46,76.9,45.3,76.9z M56.4,84l-2.6-7h0c0,0.1,0,0.3,0,0.5c0,0.2,0,0.4,0,0.7c0,0.2,0,0.5,0,0.8v5h-0.8v-7.9h1.4l2.5,6.5h0
	l2.5-6.5h1.3V84h-0.9v-5c0-0.2,0-0.5,0-0.7c0-0.2,0-0.5,0-0.7c0-0.2,0-0.4,0-0.5h0L57.1,84H56.4z M67.2,84h-4.4v-7.9h4.4V77h-3.5
	v2.5H67v0.8h-3.3v2.9h3.5V84z M75.1,84H74l-4.3-6.6h0c0,0.2,0,0.4,0,0.6c0,0.2,0,0.5,0,0.7c0,0.3,0,0.5,0,0.8V84h-0.8v-7.9h1
	l4.3,6.6h0c0-0.1,0-0.3,0-0.5c0-0.2,0-0.5,0-0.7c0-0.3,0-0.5,0-0.7v-4.5h0.9V84z M82.1,84l-1-2.5H78l-1,2.5h-0.9l3.1-7.9H80l3.1,7.9
	H82.1z M80.9,80.7L80,78.2c0-0.1-0.1-0.2-0.1-0.3c0-0.1-0.1-0.3-0.1-0.5c-0.1-0.2-0.1-0.3-0.1-0.4c0,0.1-0.1,0.3-0.1,0.4
	c0,0.1-0.1,0.3-0.1,0.4c0,0.1-0.1,0.2-0.1,0.3l-0.9,2.5H80.9z"/>
<path d="M8.3,89.6v4.2c0,0.4-0.1,0.8-0.3,1.2c-0.2,0.4-0.5,0.6-0.9,0.8c-0.4,0.2-0.9,0.3-1.5,0.3c-0.8,0-1.5-0.2-1.9-0.7
	C3.2,95,3,94.4,3,93.7v-4.1h1.4v3.9c0,0.5,0.1,0.9,0.3,1.1c0.2,0.2,0.5,0.3,1,0.3c0.3,0,0.5-0.1,0.7-0.2c0.2-0.1,0.3-0.3,0.4-0.5
	c0.1-0.2,0.1-0.5,0.1-0.8v-3.9H8.3z M9.9,96v-6.4h1.4v5.3h2.6V96H9.9z M17.4,96h-1.4v-5.3h-1.7v-1.1h4.9v1.1h-1.7V96z M20.2,96v-6.4
	h1.4V96H20.2z M25.9,96l-1.5-5h0c0,0.1,0,0.3,0,0.5c0,0.2,0,0.5,0,0.8c0,0.3,0,0.5,0,0.7v3h-1.2v-6.4H25l1.5,4.9h0l1.6-4.9H30V96
	h-1.3v-3c0-0.2,0-0.4,0-0.7c0-0.3,0-0.5,0-0.8c0-0.2,0-0.4,0-0.5h0l-1.7,5H25.9z M35.6,96l-0.5-1.5h-2.3L32.3,96h-1.5l2.3-6.5h1.7
	L37,96H35.6z M34.8,93.3l-0.5-1.5c0-0.1-0.1-0.2-0.1-0.4c0-0.2-0.1-0.3-0.1-0.5c0-0.2-0.1-0.3-0.1-0.4c0,0.1-0.1,0.3-0.1,0.4
	c0,0.2-0.1,0.3-0.1,0.5c0,0.2-0.1,0.3-0.1,0.3l-0.5,1.5H34.8z M40.3,96H39v-5.3h-1.7v-1.1h4.9v1.1h-1.7V96z M46.8,96h-3.7v-6.4h3.7
	v1.1h-2.3v1.4h2.2v1.1h-2.2v1.7h2.3V96z M51.8,96h-1.3v-6.4h3.7v1.1h-2.3v1.7H54v1.1h-2.2V96z M55.4,96v-6.4h1.4V96H55.4z M64.1,96
	h-1.7l-2.8-4.9h0c0,0.2,0,0.4,0,0.6c0,0.2,0,0.4,0,0.6c0,0.2,0,0.4,0,0.6v3h-1.2v-6.4h1.7l2.8,4.8h0c0-0.2,0-0.4,0-0.6
	c0-0.2,0-0.4,0-0.6c0-0.2,0-0.4,0-0.6v-3h1.2V96z M68.2,96h-1.4v-5.3H65v-1.1h4.9v1.1h-1.7V96z M74.6,96h-3.7v-6.4h3.7v1.1h-2.3v1.4
	h2.2v1.1h-2.2v1.7h2.3V96z M78.7,90.6c-0.3,0-0.5,0.1-0.7,0.2c-0.2,0.1-0.4,0.2-0.5,0.4c-0.1,0.2-0.2,0.4-0.3,0.7S77,92.5,77,92.8
	c0,0.5,0.1,0.8,0.2,1.2c0.1,0.3,0.3,0.6,0.5,0.7c0.2,0.2,0.5,0.3,0.9,0.3c0.3,0,0.5,0,0.8-0.1c0.3-0.1,0.5-0.1,0.9-0.3v1.1
	C80,95.9,79.7,96,79.5,96c-0.3,0.1-0.6,0.1-0.9,0.1c-0.7,0-1.2-0.1-1.6-0.4c-0.4-0.3-0.7-0.7-0.9-1.2c-0.2-0.5-0.3-1.1-0.3-1.7
	c0-0.5,0.1-0.9,0.2-1.3c0.1-0.4,0.3-0.8,0.6-1.1s0.6-0.5,0.9-0.7c0.4-0.2,0.8-0.2,1.3-0.2c0.3,0,0.6,0,1,0.1
	c0.3,0.1,0.6,0.2,0.9,0.3L80.1,91c-0.2-0.1-0.5-0.2-0.7-0.3C79.1,90.7,78.9,90.6,78.7,90.6z M86.9,96h-1.4v-2.8H83V96h-1.4v-6.4H83
	v2.5h2.5v-2.5h1.4V96z"/>
<path class="st7" d="M34.4,39.1l-3.8,9.8l6.8-2l3.7,5.9L45,41.7L49,52.8l3.7-5.9l6.8,2l-3.8-9.8"/>
<path class="st8" d="M60.9,26.6c-0.9-0.7-1-2-0.3-2.9l0,0c1-1.2,0.4-2.9-1.1-3.3l-0.1,0c-1.1-0.3-1.8-1.4-1.5-2.6l0,0
	c0.4-1.5-0.9-2.8-2.4-2.6h0c-1.2,0.2-2.3-0.6-2.4-1.7v0c-0.3-1.5-2-2.2-3.3-1.4l0,0c-1,0.6-2.3,0.3-3-0.6c-0.9-1.3-2.7-1.3-3.6,0
	l0,0c-0.6,1-2,1.2-3,0.6c-1.3-0.8-3-0.1-3.3,1.4v0c-0.2,1.1-1.3,1.9-2.5,1.7h0c-1.5-0.2-2.8,1.1-2.4,2.6l0,0.1
	c0.3,1.1-0.4,2.2-1.5,2.6h0c-1.5,0.4-2.1,2.2-1.1,3.4l0,0.1c0.7,0.9,0.6,2.2-0.3,2.9l0,0c-1.2,1-1,2.8,0.4,3.5l0.1,0
	c1,0.5,1.5,1.8,0.9,2.8l0,0c-0.7,1.4,0.3,3,1.8,3h0c1.2,0.1,2.1,1,2,2.2v0c-0.1,1.5,1.5,2.6,2.9,2.1h0c1.1-0.4,2.3,0.1,2.8,1.2v0
	c0.6,1.4,2.4,1.8,3.5,0.7l0,0c0.8-0.8,2.2-0.8,3,0c1.1,1.1,3,0.7,3.5-0.7l0,0c0.4-1.1,1.7-1.6,2.8-1.2c1.4,0.5,3-0.6,2.9-2.1v-0.1
	c-0.1-1.1,0.8-2.1,2-2.2h0c1.5-0.1,2.5-1.7,1.8-3l0-0.1c-0.5-1-0.1-2.3,0.9-2.8l0,0C61.9,29.4,62.1,27.6,60.9,26.6L60.9,26.6z
	 M45,39.3c-7.2,0-13-5.7-13-12.7c0-7,5.8-12.7,13-12.7c7.2,0,13,5.7,13,12.7C58,33.6,52.2,39.3,45,39.3L45,39.3z"/>
<path class="st8" d="M45,19.5l2.1,4.7l5.1,0.5L48.3,28l1.1,5L45,30.4L40.6,33l1.1-5l-3.8-3.4l5.1-0.5L45,19.5z"/>
</svg>
