<?xml version="1.0" encoding="utf-8"?>
<!-- Generator: Adobe Illustrator 27.2.0, SVG Export Plug-In . SVG Version: 6.00 Build 0)  -->
<svg version="1.1" id="Layer_1" xmlns="http://www.w3.org/2000/svg" xmlns:xlink="http://www.w3.org/1999/xlink" x="0px" y="0px"
	 viewBox="0 0 50 50" style="enable-background:new 0 0 50 50;" xml:space="preserve">
<style type="text/css">
	.st0{fill:none;stroke:#CD0511;stroke-linecap:round;stroke-linejoin:round;stroke-miterlimit:10;}
</style>
<g>
	<g>
		<path class="st0" d="M14.5,23.6c-2.1-1.3-3.4-3.6-3.4-6.3c0-4.1,3.3-7.5,7.5-7.5s7.5,3.3,7.5,7.5c0,2.6-1.3,4.9-3.3,6.2"/>
	</g>
	<g>
		<g>
			<path class="st0" d="M21.8,42.9c-4.3,0-7.9-3.3-8.4-7.6c0,0,0-0.1,0-0.2V30c0-1.1,0.9-2.1,2-2.1c0.4,0,0.9,0.2,1.2,0.4v-8.2
				c0-1.1,0.9-2.1,2-2.1s2,0.9,2,2.1V26c0.3-0.3,0.7-0.4,1.2-0.4c0.8,0,1.6,0.6,1.9,1.3c0.4-0.3,0.8-0.5,1.3-0.5
				c0.9,0,1.7,0.6,1.9,1.5c0.3-0.3,0.8-0.5,1.3-0.5c1.1,0,2,0.9,2,2.1v5.3c0,0,0,0,0,0.1C30.1,39.3,26.4,42.9,21.8,42.9z"/>
		</g>
		<line class="st0" x1="16.7" y1="28.4" x2="16.7" y2="32"/>
		<line class="st0" x1="20.6" y1="26" x2="20.6" y2="27.7"/>
		<line class="st0" x1="23.7" y1="26.9" x2="23.7" y2="28.4"/>
		<line class="st0" x1="27" y1="27.9" x2="27" y2="29.5"/>
	</g>
	<circle class="st0" cx="19.7" cy="14.3" r="1.3"/>
	<circle class="st0" cx="25.6" cy="8.4" r="1.3"/>
	<circle class="st0" cx="31.6" cy="14.3" r="1.3"/>
	<circle class="st0" cx="37.6" cy="8.4" r="1.3"/>
	<line class="st0" x1="20.6" y1="13.5" x2="24.8" y2="9.3"/>
	<line class="st0" x1="26.6" y1="9.2" x2="30.6" y2="13.2"/>
	<line class="st0" x1="32.5" y1="13.3" x2="36.6" y2="9.2"/>
</g>
</svg>
