<svg width="80" height="38" viewBox="0 0 80 38" fill="none" xmlns="http://www.w3.org/2000/svg">
<g clip-path="url(#clip0_5294_109)">
<path d="M2.80294 31.7862C3.19028 31.7862 3.52128 31.8413 3.79594 31.9514C4.0706 32.0616 4.29244 32.2097 4.46146 32.3887C4.63049 32.5677 4.75725 32.7778 4.83472 33.0084C4.91219 33.2426 4.95092 33.4836 4.95092 33.7315C4.95092 33.9794 4.91219 34.2169 4.83472 34.451C4.75725 34.6852 4.63049 34.8952 4.46146 35.0777C4.29244 35.2601 4.06708 35.4047 3.79594 35.5149C3.5248 35.6251 3.1938 35.6802 2.80294 35.6802H1.36626V37.8596H0V31.7793H2.80294V31.7862ZM2.42968 34.6473C2.58814 34.6473 2.73604 34.637 2.88393 34.6129C3.0283 34.5888 3.15507 34.5474 3.26775 34.482C3.37691 34.4166 3.46494 34.3236 3.53185 34.2066C3.59875 34.0861 3.63044 33.9311 3.63044 33.7383C3.63044 33.5455 3.59523 33.3906 3.53185 33.2701C3.46494 33.1496 3.37691 33.0601 3.26775 32.9947C3.15859 32.9292 3.0283 32.8845 2.88393 32.8638C2.73956 32.8397 2.58814 32.8294 2.42968 32.8294H1.36626V34.6507H2.42968V34.6473Z" fill="black"/>
<path d="M11.9717 31.7857V36.7401H15.0036V37.8625H10.6055V31.7822H11.9717V31.7857Z" fill="black"/>
<path d="M23.6677 31.7861L25.9918 37.8664H24.5727L24.1009 36.5133H21.7768L21.2909 37.8664H19.9141L22.2663 31.7861H23.6677ZM23.7452 35.5149L22.96 33.2838H22.9424L22.1325 35.5149H23.7417H23.7452Z" fill="black"/>
<path d="M30.0391 32.9085V31.7861H35.1344V32.9085H33.2716V37.863H31.9053V32.9085H30.0426H30.0391Z" fill="black"/>
<path d="M45.0183 31.7857V32.9081H42.0147V34.3128H44.6169V35.3526H42.0147V37.8625H40.6484V31.7822H45.0183V31.7857Z" fill="black"/>
<path d="M50.5476 33.5864C50.6884 33.1974 50.8856 32.8599 51.1497 32.5673C51.4103 32.2781 51.7307 32.0509 52.111 31.8856C52.4913 31.7203 52.9209 31.6377 53.3963 31.6377C53.8717 31.6377 54.3083 31.7203 54.6851 31.8856C55.0619 32.0509 55.3823 32.2781 55.6429 32.5673C55.9035 32.8565 56.1042 33.1974 56.245 33.5864C56.3859 33.9755 56.4528 34.3955 56.4528 34.85C56.4528 35.3045 56.3824 35.7073 56.245 36.0894C56.1042 36.4716 55.907 36.8056 55.6429 37.0914C55.3823 37.3737 55.0619 37.5975 54.6851 37.7593C54.3083 37.9211 53.8787 38.0037 53.3963 38.0037C52.9139 38.0037 52.4913 37.9245 52.111 37.7593C51.7307 37.5975 51.4103 37.3737 51.1497 37.0914C50.8892 36.809 50.6884 36.4751 50.5476 36.0894C50.4067 35.7073 50.3398 35.2941 50.3398 34.85C50.3398 34.4058 50.4103 33.9755 50.5476 33.5864ZM51.7977 35.5971C51.8575 35.8381 51.9561 36.055 52.0899 36.2478C52.2237 36.4406 52.3963 36.5956 52.6111 36.7126C52.8259 36.8297 53.0864 36.8882 53.3963 36.8882C53.7062 36.8882 53.9668 36.8297 54.1816 36.7126C54.3964 36.5956 54.5689 36.4406 54.7027 36.2478C54.8365 36.055 54.9351 35.8381 54.995 35.5971C55.0548 35.3561 55.0865 35.1082 55.0865 34.8534C55.0865 34.5986 55.0548 34.3301 54.995 34.0788C54.9351 33.8274 54.8365 33.6071 54.7027 33.4108C54.5689 33.2146 54.3964 33.0596 54.1816 32.9426C53.9668 32.8255 53.7062 32.767 53.3963 32.767C53.0864 32.767 52.8259 32.8255 52.6111 32.9426C52.3963 33.0596 52.2237 33.2146 52.0899 33.4108C51.9561 33.6071 51.8575 33.8309 51.7977 34.0788C51.7378 34.3301 51.7061 34.5883 51.7061 34.8534C51.7061 35.1185 51.7378 35.3561 51.7977 35.5971Z" fill="black"/>
<path d="M65.5327 31.7862C65.8109 31.7862 66.0609 31.8309 66.2863 31.917C66.5081 32.0065 66.7018 32.127 66.8602 32.2785C67.0187 32.4335 67.1419 32.6091 67.2265 32.8087C67.311 33.0119 67.3532 33.2288 67.3532 33.4595C67.3532 33.8175 67.2758 34.1274 67.1208 34.3891C66.9659 34.6507 66.7159 34.847 66.3673 34.9847V35.0019C66.5363 35.0467 66.6736 35.1155 66.7863 35.2119C66.8955 35.3049 66.987 35.4151 67.0574 35.5425C67.1279 35.6698 67.1772 35.811 67.2088 35.9625C67.2405 36.1174 67.2617 36.2689 67.2758 36.4239C67.2828 36.5203 67.2863 36.6339 67.2934 36.7647C67.3004 36.8955 67.3074 37.0298 67.325 37.1641C67.3391 37.3018 67.3638 37.4292 67.3955 37.5497C67.4272 37.6702 67.4765 37.7769 67.5398 37.8596H66.1736C66.0996 37.6668 66.0503 37.4361 66.0327 37.171C66.0151 36.9059 65.9905 36.6476 65.9553 36.4032C65.9095 36.0864 65.8109 35.8523 65.6595 35.7043C65.5081 35.5562 65.2616 35.4839 64.92 35.4839H63.5538V37.8596H62.1875V31.7793H65.5398L65.5327 31.7862ZM65.0468 34.5371C65.3602 34.5371 65.5961 34.4683 65.751 34.334C65.9095 34.1963 65.987 33.9759 65.987 33.6695C65.987 33.3631 65.9095 33.1599 65.751 33.0256C65.5926 32.8914 65.3602 32.826 65.0468 32.826H63.5502V34.5371H65.0468Z" fill="black"/>
<path d="M75.1914 31.7861L76.6457 35.9659H76.6633L78.0401 31.7861H79.9627V37.8664H78.681V33.5593H78.6634L77.1386 37.8664H76.0858L74.5611 33.6006H74.5435V37.8664H73.2617V31.7861H75.1843H75.1914Z" fill="black"/>
<path d="M66.3531 13.3484L52.7188 0.0172148V7.45057L66.3531 20.7817L70.1561 17.0633H70.1597L74.6211 12.6977V25.929H80.0016V0L66.3531 13.3484Z" fill="#CD0511"/>
<path d="M5.72362 0.106445V10.0084H16.2311V0.106445H21.9391V25.9115H16.2311V14.7804H5.72362V25.9115H0.015625V0.106445H5.72362Z" fill="black"/>
<path d="M44.4852 0.106445V4.87839H31.9424V10.8416H42.8126V15.252H31.9424V25.9115H26.2344V0.106445H44.4887H44.4852Z" fill="black"/>
<path d="M54.2047 5.27843L48.8242 0.0175781V25.9293H54.2047V12.7118L66.3602 24.5969V17.1601L54.2047 5.27843Z" fill="black"/>
</g>
<defs>
<clipPath id="clip0_5294_109">
<rect width="80" height="38" fill="white"/>
</clipPath>
</defs>
</svg>
