<?xml version="1.0" encoding="utf-8"?>
<!-- Generator: Adobe Illustrator 27.2.0, SVG Export Plug-In . SVG Version: 6.00 Build 0)  -->
<svg version="1.1" id="Layer_1" xmlns="http://www.w3.org/2000/svg" xmlns:xlink="http://www.w3.org/1999/xlink" x="0px" y="0px"
	 viewBox="0 0 180 180" style="enable-background:new 0 0 180 180;" xml:space="preserve">
<style type="text/css">
	.st0{fill:none;stroke:#7E7E7E;stroke-miterlimit:10;}
	.st1{fill:#7E7E7E;}
</style>
<g>
	<g>
		<path class="st0" d="M136.3,101.7v45c0,1.7-1.4,3.1-3.1,3.1H49.6c-1.7,0-3.1-1.4-3.1-3.1V82.3c0-1.7,1.4-3.1,3.1-3.1h83.6
			c1.7,0,3.1,1.4,3.1,3.1V84"/>
		<g>
			<path class="st0" d="M59.8,79.2V61.7c0-17.5,14.2-31.6,31.6-31.6h0c17.5,0,31.6,14.2,31.6,31.6v17.5"/>
			<path class="st0" d="M70.9,79.2V61.1c0-11.3,9.2-20.5,20.5-20.5h0c11.3,0,20.5,9.2,20.5,20.5v18.1"/>
		</g>
		<g>
			<g>
				<path class="st0" d="M86.7,128.2h9.2l-1.5-11.3c-0.1-0.9,0.3-1.9,1.1-2.4c2.1-1.4,3.3-3.7,3.3-6.2c0-4.1-3.3-7.5-7.5-7.5
					c-4.1,0-7.5,3.3-7.5,7.5c0,2.5,1.2,4.8,3.3,6.2c0.8,0.5,1.2,1.5,1.1,2.4L86.7,128.2z"/>
			</g>
		</g>
	</g>
	<path class="st0" d="M159.6,101.7h-51.9c-4.9,0-8.9-4-8.9-8.9v0c0-4.9,4-8.9,8.9-8.9h51.9c4.9,0,8.9,4,8.9,8.9v0
		C168.5,97.8,164.5,101.7,159.6,101.7z"/>
	<g>
		<g>
			<line class="st0" x1="110.5" y1="89.8" x2="110.5" y2="93.8"/>
			<line class="st0" x1="110.5" y1="93.8" x2="112.7" y2="96.8"/>
			<line class="st0" x1="110.5" y1="93.8" x2="108.2" y2="96.8"/>
			<line class="st0" x1="110.5" y1="93.8" x2="107" y2="92.5"/>
			<line class="st0" x1="110.5" y1="93.8" x2="114" y2="92.6"/>
		</g>
		<g>
			<line class="st0" x1="119.8" y1="89.8" x2="119.8" y2="93.8"/>
			<line class="st0" x1="119.8" y1="93.8" x2="122" y2="96.8"/>
			<line class="st0" x1="119.8" y1="93.8" x2="117.5" y2="96.8"/>
			<line class="st0" x1="119.8" y1="93.8" x2="116.2" y2="92.5"/>
			<line class="st0" x1="119.8" y1="93.8" x2="123.3" y2="92.6"/>
		</g>
		<g>
			<line class="st0" x1="129.1" y1="89.8" x2="129.1" y2="93.8"/>
			<line class="st0" x1="129.1" y1="93.8" x2="131.3" y2="96.8"/>
			<line class="st0" x1="129.1" y1="93.8" x2="126.8" y2="96.8"/>
			<line class="st0" x1="129.1" y1="93.8" x2="125.5" y2="92.5"/>
			<line class="st0" x1="129.1" y1="93.8" x2="132.6" y2="92.6"/>
		</g>
		<g>
			<line class="st0" x1="138.3" y1="89.8" x2="138.3" y2="93.8"/>
			<line class="st0" x1="138.3" y1="93.8" x2="140.6" y2="96.8"/>
			<line class="st0" x1="138.3" y1="93.8" x2="136.1" y2="96.8"/>
			<line class="st0" x1="138.3" y1="93.8" x2="134.8" y2="92.5"/>
			<line class="st0" x1="138.3" y1="93.8" x2="141.9" y2="92.6"/>
		</g>
		<g>
			<line class="st0" x1="147.6" y1="89.8" x2="147.6" y2="93.8"/>
			<line class="st0" x1="147.6" y1="93.8" x2="149.9" y2="96.8"/>
			<line class="st0" x1="147.6" y1="93.8" x2="145.3" y2="96.8"/>
			<line class="st0" x1="147.6" y1="93.8" x2="144.1" y2="92.5"/>
			<line class="st0" x1="147.6" y1="93.8" x2="151.2" y2="92.6"/>
		</g>
		<g>
			<line class="st0" x1="156.9" y1="89.8" x2="156.9" y2="93.8"/>
			<line class="st0" x1="156.9" y1="93.8" x2="159.1" y2="96.8"/>
			<line class="st0" x1="156.9" y1="93.8" x2="154.6" y2="96.8"/>
			<line class="st0" x1="156.9" y1="93.8" x2="153.4" y2="92.5"/>
			<line class="st0" x1="156.9" y1="93.8" x2="160.5" y2="92.6"/>
		</g>
	</g>
</g>
</svg>
